<?xml version="1.0" standalone="no"?>
<!DOCTYPE svg PUBLIC "-//W3C//DTD SVG 20010904//EN"
 "http://www.w3.org/TR/2001/REC-SVG-20010904/DTD/svg10.dtd">
<svg version="1.0" xmlns="http://www.w3.org/2000/svg"
 width="590.000000pt" height="590.000000pt" viewBox="0 0 590.000000 590.000000"
 preserveAspectRatio="xMidYMid meet">
<metadata>
Created by potrace 1.14, written by Peter Selinger 2001-2017
</metadata>
<g transform="translate(0.000000,590.000000) scale(0.100000,-0.100000)"
fill="#000000" stroke="none">
<path d="M2673 5748 l-263 -150 0 -529 0 -529 33 -1 c40 -2 111 1 115 5 1 2 2
219 2 483 l0 479 184 107 c102 59 190 107 196 107 12 0 336 -186 361 -207 14
-11 15 -68 15 -484 -1 -259 1 -475 4 -479 5 -8 71 -13 128 -11 l22 1 0 528 0
527 -21 14 c-12 7 -38 22 -58 33 -20 11 -129 74 -243 139 -114 66 -209 119
-210 118 -2 0 -121 -68 -265 -151z"/>
<path d="M1723 5052 l-62 -38 75 -128 c41 -70 74 -132 74 -137 0 -5 5 -9 10
-9 6 0 10 -5 10 -10 0 -6 20 -43 43 -83 24 -39 88 -148 142 -242 54 -93 119
-206 145 -250 27 -44 57 -96 67 -115 11 -19 75 -129 142 -245 68 -115 123
-214 124 -218 1 -4 -50 -39 -113 -76 l-116 -68 -34 24 c-19 12 -38 23 -43 23
-5 0 -21 8 -35 19 -15 10 -47 29 -72 43 -25 14 -85 49 -135 78 -49 29 -110 64
-135 78 -25 14 -172 99 -328 189 -155 90 -286 162 -291 158 -12 -7 -75 -115
-70 -119 10 -8 193 -115 612 -357 l458 -264 -3 -139 -3 -140 -838 0 -838 0 3
-75 3 -76 827 0 c455 0 830 -4 834 -8 11 -10 8 -257 -3 -268 -8 -7 -103 -63
-748 -434 -170 -98 -311 -179 -313 -181 -5 -3 59 -113 69 -120 10 -6 125 59
759 425 l315 182 40 -20 c53 -27 178 -100 188 -110 6 -6 -74 -157 -132 -251
-5 -8 -45 -78 -89 -155 -44 -77 -89 -156 -100 -175 -11 -19 -115 -201 -232
-405 -117 -203 -225 -392 -240 -420 l-28 -49 61 -37 c45 -27 65 -34 74 -27 7
6 13 14 13 18 0 5 29 57 64 117 85 143 440 753 480 824 94 167 272 469 277
469 4 0 57 -30 118 -66 68 -40 111 -72 112 -82 0 -9 1 -288 1 -619 1 -544 3
-603 17 -604 18 -1 99 -1 121 0 13 1 15 76 15 617 0 338 2 619 5 623 5 7 133
81 155 90 6 2 23 13 38 24 18 12 32 16 38 10 10 -10 119 -193 119 -199 0 -3
11 -21 23 -42 20 -31 315 -537 375 -643 91 -160 307 -526 316 -536 8 -9 24 -4
69 23 31 20 57 39 57 44 0 5 -15 35 -34 67 -36 61 -394 682 -428 743 -11 19
-53 91 -93 160 -39 69 -83 145 -97 170 -14 25 -58 101 -97 168 -39 68 -71 127
-71 130 1 10 217 132 233 132 7 0 21 -6 32 -14 11 -7 40 -24 65 -38 25 -14
187 -108 360 -208 173 -101 340 -196 370 -213 30 -16 66 -38 80 -47 14 -9 56
-34 94 -54 55 -30 71 -35 77 -25 5 8 22 37 38 64 l30 50 -521 300 c-286 165
-528 305 -537 312 -13 9 -16 34 -16 147 0 86 3 136 10 137 5 1 381 2 835 3
l825 1 0 75 0 75 -825 1 c-454 1 -830 2 -835 3 -15 1 -13 257 1 271 6 6 24 18
41 28 62 35 269 154 303 174 82 48 620 358 667 385 l52 29 -35 62 c-19 34 -39
62 -44 62 -7 0 -111 -59 -610 -348 -170 -98 -186 -107 -359 -206 -91 -52 -106
-58 -124 -47 -11 7 -36 22 -56 33 -80 44 -151 90 -151 96 0 4 6 16 14 27 7 11
22 36 32 55 15 27 274 472 315 540 52 88 469 811 469 814 0 7 -121 79 -125 74
-4 -4 -161 -272 -263 -448 -30 -52 -94 -162 -142 -245 -98 -168 -337 -579
-355 -610 -73 -131 -76 -135 -98 -123 -55 29 -194 112 -207 124 -14 12 -16 88
-15 625 0 517 -2 612 -14 617 -12 5 -69 6 -122 3 -14 -1 -16 -60 -15 -613 1
-533 -1 -615 -14 -628 -18 -18 -220 -134 -224 -129 -4 5 -461 791 -491 844
-53 96 -337 581 -343 587 -4 4 -35 -9 -69 -30z"/>
<path d="M849 4686 c-41 -24 -161 -93 -266 -155 l-193 -113 0 -307 0 -307 83
-47 c104 -60 106 -61 500 -290 181 -104 332 -186 336 -181 4 5 22 34 40 65 24
44 28 59 19 66 -11 8 -321 189 -524 304 -23 13 -100 58 -173 99 l-131 75 0
220 0 220 78 42 c169 94 209 116 253 143 l45 27 130 -74 c71 -41 152 -88 180
-104 28 -15 103 -58 165 -95 63 -37 134 -78 159 -92 25 -14 82 -46 127 -73
l82 -48 36 66 c21 39 32 70 27 75 -7 7 -182 110 -327 193 -22 13 -123 71 -225
130 -102 59 -205 119 -230 133 -25 14 -61 35 -81 48 l-36 22 -74 -42z"/>
<path d="M4945 4721 c-6 -5 -201 -119 -435 -255 -234 -135 -431 -250 -438
-254 -10 -7 -5 -23 23 -70 20 -34 38 -62 40 -62 3 0 192 108 421 240 l417 241
116 -68 c64 -37 149 -85 188 -107 l73 -41 0 -217 0 -217 -142 -85 c-79 -46
-159 -93 -178 -104 -19 -10 -144 -83 -277 -161 l-242 -143 25 -41 c60 -97 27
-101 261 35 115 66 226 130 248 143 82 46 271 155 285 165 8 5 48 28 87 50 40
23 75 46 79 51 6 11 9 607 3 613 -19 17 -520 296 -531 296 -8 0 -18 -4 -23 -9z"/>
<path d="M4558 2556 c-20 -33 -34 -64 -32 -67 2 -4 190 -114 418 -245 l414
-239 0 -220 0 -220 -186 -108 -187 -109 -40 21 c-40 21 -67 36 -230 131 -49
29 -106 62 -125 72 -19 11 -125 72 -235 135 -110 64 -203 117 -207 119 -11 7
-81 -117 -72 -126 7 -7 505 -298 659 -385 22 -13 87 -50 143 -83 l104 -60 51
30 c29 17 147 86 262 154 l210 123 3 309 2 308 -166 95 c-91 52 -178 101 -192
109 -15 9 -74 42 -132 75 -58 33 -114 65 -125 72 -11 7 -27 16 -35 20 -8 4
-46 25 -85 48 -38 23 -95 55 -125 72 l-55 31 -37 -62z"/>
<path d="M1065 2468 c-132 -77 -330 -192 -440 -256 -110 -63 -206 -121 -214
-128 -12 -11 -14 -67 -14 -314 0 -165 2 -302 4 -304 3 -3 95 -55 329 -188 19
-11 69 -40 111 -64 42 -24 81 -44 87 -44 6 0 53 24 104 54 52 30 253 145 448
256 195 111 356 203 358 205 3 3 -56 116 -67 128 -7 7 -98 -44 -426 -233 -16
-10 -117 -68 -224 -129 l-194 -112 -116 68 c-64 37 -149 85 -188 107 l-73 41
3 219 2 218 275 159 c151 87 339 195 417 241 l142 82 -31 56 c-17 30 -36 60
-42 66 -8 8 -76 -27 -251 -128z"/>
<path d="M2465 1362 l-40 -3 1 -527 c1 -290 2 -530 3 -534 0 -5 6 -8 11 -8 6
0 40 -18 76 -40 36 -22 67 -40 69 -40 2 0 74 -41 162 -92 216 -125 203 -119
227 -106 64 34 492 281 500 289 6 5 10 226 10 534 l1 525 -77 0 -78 0 0 -484
0 -484 -184 -106 c-101 -58 -187 -106 -191 -106 -4 0 -73 37 -152 83 -79 45
-158 90 -176 100 -18 11 -36 23 -42 28 -6 6 -10 193 -10 487 l0 477 -35 5
c-19 3 -53 4 -75 2z"/>
</g>
</svg>
