<?xml version="1.0" encoding="UTF-8"?>
<svg data-name="Layer 2" xmlns="http://www.w3.org/2000/svg" viewBox="0 0 662.68 379.87">
  <g data-name="Background Complete" stroke-width="0">
    <path d="M24.15 280.25s-2.91 6.81 12.97 11.56c15.88 4.75 24.76 6.03 24.76 6.03s3.4 1.4 1.79 3.85c-1.61 2.45-6.73 6.35-5.06 9.71 1.73 3.49 6.06 3.96 11.98 2.15 5.92-1.81 19.02-5.29 20.21-5.6 1.16-.3 3.03.05 2.2 1.9-.83 1.85-9.62 13.21-3.98 17.06 5.64 3.85 21.29-3.89 23.02-4.7 1.73-.81 2.57-.6 3.17.18.61.78-2.71 4.32-5.08 7.65s-4.53 7.61-1.09 9.56c3.44 1.95 15.98.48 33.95-14.98l7.86-7.71-2.59-10.75c-6.94-22.68-16.75-30.61-20.7-30.8-3.95-.19-4.41 4.58-4.19 8.67s1.13 8.85.2 9.18c-.93.34-1.75.07-2.78-1.54-1.03-1.61-10.13-16.51-16.95-16.27-6.82.24-5.46 14.54-5.75 16.55-.29 2-2.05 1.31-2.88.43-.84-.9-10.06-10.84-14.09-15.52-4.04-4.69-7.95-6.61-11.27-4.58-3.21 1.96-.96 7.98-.91 10.92.05 2.93-3.57 2.3-3.57 2.3s-8.2-3.67-24.16-8.13c-15.96-4.46-17.13 3.03-17.13 3.03" fill="#ebebeb"/>
    <path d="M153.12 318.29c-11.71-3.32-32.42-9.58-50.23-14.86-17.8-5.28-33.93-10.04-45.62-13.42-5.84-1.68-10.56-3.04-13.85-3.99-1.62-.47-2.89-.84-3.76-1.09-.42-.12-.74-.22-.98-.29-.22-.07-.33-.11-.33-.11s.12.02.34.08c.24.06.56.15.99.26.88.24 2.15.58 3.78 1.03 3.28.89 8.03 2.22 13.88 3.89 11.71 3.32 27.84 8.05 45.65 13.33 17.81 5.28 38.51 11.57 50.2 14.95" fill="#e0e0e0"/>
    <path d="M66 306.25s.23-.17.68-.41c.45-.24 1.11-.58 1.93-.98 1.64-.81 3.94-1.86 6.49-2.98 2.52-1.1 4.81-2.09 6.55-2.84.78-.35 1.45-.64 1.98-.87.47-.21.73-.31.74-.29.01.02-.23.17-.68.41-.45.24-1.11.58-1.94.97-1.65.79-3.96 1.82-6.52 2.94l-6.53 2.89c-.78.35-1.44.65-1.98.88-.47.21-.73.31-.74.29ZM84.39 296.83c-.08.04-2.47-4.6-5.33-10.36-2.86-5.77-5.11-10.47-5.02-10.51.08-.04 2.47 4.6 5.33 10.36s5.11 10.47 5.02 10.51ZM111.37 306.17s-.09-.28-.18-.79c-.1-.58-.23-1.31-.39-2.18-.33-1.84-.8-4.37-1.42-7.14-.61-2.78-1.26-5.27-1.73-7.08-.22-.85-.41-1.56-.57-2.14-.13-.51-.19-.79-.17-.8.02 0 .13.26.3.76.17.49.4 1.21.67 2.11a99.91 99.91 0 0 1 3.16 14.25c.13.92.23 1.67.28 2.19.06.52.07.81.05.81ZM96.6 318.35s.17-.21.53-.53c.41-.37.92-.82 1.52-1.36 1.3-1.14 3.1-2.69 5.11-4.39 2.01-1.7 3.84-3.23 5.18-4.32.63-.5 1.16-.93 1.59-1.28.38-.3.6-.45.61-.43.02.02-.17.21-.53.53-.41.37-.92.82-1.52 1.36-1.3 1.14-3.1 2.69-5.11 4.39-2.01 1.7-3.84 3.22-5.18 4.32-.63.5-1.16.93-1.59 1.28-.38.3-.6.45-.61.43ZM119.37 329.62s.23-.26.68-.68c.51-.46 1.16-1.04 1.95-1.75 1.65-1.47 3.95-3.48 6.51-5.68 2.55-2.2 4.88-4.19 6.57-5.61.81-.67 1.49-1.23 2.02-1.67.48-.39.75-.59.77-.58.02.02-.23.26-.68.68-.51.46-1.16 1.04-1.95 1.75-1.65 1.47-3.95 3.48-6.51 5.68-2.55 2.2-4.88 4.18-6.57 5.61-.81.67-1.49 1.23-2.02 1.67-.48.39-.75.59-.77.58ZM137.32 313.91s-.11-.35-.26-1c-.15-.71-.35-1.63-.59-2.74-.5-2.31-1.21-5.5-2.09-9.01-.88-3.5-1.75-6.65-2.4-8.93l-.77-2.7c-.18-.64-.27-.99-.24-1 .02 0 .15.34.37.96.22.63.52 1.54.87 2.67.71 2.26 1.62 5.41 2.5 8.92.88 3.51 1.55 6.71 2 9.04.22 1.16.39 2.11.49 2.76.1.65.15 1.02.13 1.02Z" fill="#e0e0e0"/>
    <path d="M475.5 104.82c-13.96-9.39-17.41-27.22-17.14-43.3.04-2.68-.3-5.51.93-7.89 1.24-2.38 4.18-4.04 6.61-2.95 2.01.9 2.92 3.21 4.07 5.1 1.53 2.52 3.78 4.6 6.4 5.9 1.72.86 3.85 1.36 5.52.4 2.29-1.32 2.51-4.52 2.44-7.19l-.36-14.92c-.06-2.67-.12-5.39.67-7.94.79-2.55 2.58-4.93 5.1-5.69 2.53-.76 5.69.65 6.27 3.25.24 1.08.04 2.22.13 3.32.09 1.11.63 2.32 1.69 2.61 1.07.29 2.13-.48 2.91-1.28 2.71-2.74 4.51-6.25 6.2-9.73 1.69-3.48 3.32-7.05 5.77-10.03 2.45-2.98 5.86-5.37 9.68-5.66 3.82-.28 7.93 2 8.96 5.74 1.04 3.75-1.09 7.6-3.43 10.69a59.444 59.444 0 0 1-12.19 12.04c-.83.61-1.73 1.27-2.04 2.27-.55 1.79 1.17 3.53 2.94 4.08 2 .63 4.16.38 6.24.59 2.09.21 4.36 1.09 5.18 3.04 1.14 2.71-1.09 5.61-3.3 7.52a51.234 51.234 0 0 1-14.95 8.99c-1.95.75-4.01 1.42-5.56 2.83-1.56 1.41-2.47 3.82-1.48 5.69.99 1.87 3.46 2.42 5.51 2 2.05-.42 3.87-1.57 5.82-2.34 3.64-1.45 8.38-1.28 10.79 1.85 1.58 2.06 1.77 4.95 1.03 7.45s-2.28 4.66-3.93 6.67c-5.76 7-13.18 12.69-21.64 15.79-8.45 3.1-16.32 4.04-24.83 1.1" fill="#ebebeb"/>
    <path d="M479.47 94.67c2.22-8.15 5.4-16.89 9.04-25.91.92-2.25 1.82-4.48 2.72-6.67.9-2.19 1.79-4.36 2.79-6.42 1.98-4.15 4.21-7.98 6.43-11.55 2.22-3.58 4.46-6.89 6.58-9.97 2.13-3.08 4.16-5.91 6.13-8.41a96.116 96.116 0 0 1 13.18-13.84c.34-.29.61-.51.81-.68.18-.15.28-.23.29-.22 0 0-.08.09-.25.26-.19.18-.45.42-.78.72-.69.63-1.7 1.56-2.98 2.79a100.94 100.94 0 0 0-10 11.18c-1.94 2.51-3.96 5.35-6.06 8.43-2.1 3.09-4.33 6.41-6.53 9.98-2.21 3.57-4.41 7.4-6.38 11.52-.99 2.06-1.87 4.21-2.77 6.4-.89 2.19-1.8 4.42-2.71 6.67-3.63 9.02-6.82 17.73-9.06 25.85" fill="#e0e0e0"/>
    <path d="M494.15 55.64s-.13-.4-.28-1.13c-.15-.74-.34-1.81-.55-3.13-.42-2.65-.89-6.33-1.38-10.39-.49-4.06-1.01-7.72-1.47-10.36-.23-1.32-.42-2.38-.57-3.12-.14-.74-.2-1.15-.17-1.16.03 0 .16.39.36 1.11.2.72.45 1.78.72 3.1.55 2.63 1.12 6.3 1.62 10.37.48 4.01.91 7.63 1.24 10.4.16 1.25.29 2.3.4 3.15.09.74.13 1.16.09 1.17Z" fill="#e0e0e0"/>
    <path d="M528.35 48.62s-.49.1-1.37.19c-.88.09-2.15.22-3.72.43-3.14.39-7.45 1.09-12.18 2.07-4.73.99-8.96 2.06-12.01 2.93-1.53.42-2.75.8-3.6 1.05-.85.26-1.32.38-1.33.35-.01-.03.44-.22 1.27-.54.83-.31 2.04-.74 3.56-1.2 3.03-.95 7.27-2.09 12.01-3.08 4.74-.98 9.08-1.62 12.23-1.93 1.58-.17 2.86-.24 3.74-.28.89-.03 1.38-.03 1.38 0ZM479.88 94.03s-.1-.14-.24-.41c-.16-.33-.37-.74-.61-1.23-.52-1.07-1.24-2.64-2.1-4.59-1.72-3.9-3.94-9.37-6.3-15.43-2.36-6.06-4.52-11.54-6.16-15.47-.8-1.91-1.47-3.48-1.96-4.65-.21-.51-.38-.93-.53-1.27-.12-.29-.17-.45-.15-.46.02 0 .1.14.24.42.16.33.37.74.61 1.23.52 1.07 1.24 2.64 2.1 4.59 1.72 3.9 3.94 9.37 6.3 15.43 2.36 6.06 4.52 11.54 6.16 15.47.8 1.91 1.47 3.48 1.96 4.65.21.51.38.93.53 1.27.12.29.17.45.15.46ZM525.21 78.53s-.15.08-.45.19c-.35.13-.79.28-1.32.47-1.22.42-2.86.98-4.85 1.67-4.1 1.41-9.74 3.42-15.96 5.65-6.23 2.23-11.89 4.2-16.02 5.52-2.06.66-3.74 1.18-4.9 1.52-.54.15-.98.28-1.34.38-.31.08-.47.12-.48.1 0-.02.15-.08.45-.2.35-.12.79-.28 1.32-.47 1.22-.42 2.86-.98 4.85-1.67 4.1-1.41 9.74-3.42 15.97-5.65 6.23-2.23 11.89-4.19 16.02-5.52 2.06-.66 3.74-1.18 4.91-1.52.54-.15.98-.28 1.34-.38.31-.08.47-.12.48-.1Z" fill="#e0e0e0"/>
    <path d="M628.42 171.92c-.14 2.72-1.66 5.25-3.73 7.01-2.08 1.76-4.67 2.82-7.31 3.48-5.11 1.28-11.1.35-16.14-1.19 2.06-5.48 7.99-8.78 11.1-10.27 4.92-2.35 15.24-3.61 16.09.96M594.94 189.06c2.52-1.7 6-1.68 8.69-.27 2.69 1.42 4.61 4.09 5.45 7.01.39 1.35.54 2.91-.26 4.07-.75 1.08-2.19 1.53-3.49 1.37-1.3-.16-2.49-.84-3.54-1.64-3.58-2.74-6.55-6.04-6.85-10.54" fill="#ebebeb"/>
    <path d="M581.77 188.42c0-.07 1.28-.36 3.42-.65 1.07-.14 2.39-.16 3.81 0 1.41.16 2.97.31 4.59.71 3.24.76 5.92 2.31 7.52 3.79.81.73 1.36 1.42 1.72 1.91.34.5.5.8.46.82-.09.06-.82-1.06-2.45-2.41-1.62-1.35-4.24-2.79-7.39-3.53-1.56-.39-3.11-.55-4.51-.74-1.4-.18-2.65-.2-3.71-.12-2.12.18-3.45.32-3.46.23Z" fill="#e0e0e0"/>
    <path d="M620.65 173.58s-.55.31-1.58.78c-1.03.47-2.54 1.12-4.4 1.91-3.73 1.58-8.9 3.71-14.68 5.93-5.78 2.21-11.06 4.07-14.91 5.33-1.93.63-3.49 1.12-4.58 1.44-1.09.32-1.69.48-1.71.44-.01-.04.57-.27 1.63-.66 1.17-.42 2.68-.96 4.51-1.62 3.81-1.36 9.07-3.27 14.84-5.48 5.7-2.23 10.86-4.25 14.73-5.76 1.81-.7 3.32-1.29 4.47-1.74 1.06-.4 1.65-.6 1.67-.57Z" fill="#e0e0e0"/>
    <path d="M590.72 183.54c5.09-3.9 8.1-10.38 7.78-16.78-.08-1.63-.59-3.54-2.13-4.09-1.54-.54-3.15.63-4.2 1.88-4.4 5.19-5.18 13.15-1.87 19.1" fill="#ebebeb"/>
    <path d="M594.9 169.89s.05.33.02.93c-.02.6-.1 1.45-.23 2.51-.31 2.09-.85 5.06-2.47 7.95-.81 1.44-1.83 2.66-2.89 3.62s-2.19 1.6-3.15 2.08c-.98.45-1.79.75-2.37.89-.58.15-.9.22-.91.18-.04-.11 1.24-.46 3.09-1.44.91-.51 1.97-1.17 2.97-2.11 1-.94 1.96-2.12 2.74-3.5 1.56-2.78 2.16-5.68 2.57-7.73.38-2.07.53-3.38.63-3.37Z" fill="#e0e0e0"/>
    <path d="M60.79.04c3.21-.3 6.43 1.05 8.85 3.18s4.1 4.99 5.32 7.97c2.37 5.77 2.3 12.94 1.36 19.1-6.76-1.48-11.64-7.86-13.91-11.25-3.59-5.36-6.82-17.23-1.62-19M86.56 36.32c-2.42-2.67-2.99-6.73-1.79-10.13 1.2-3.39 4-6.09 7.28-7.58 1.52-.69 3.32-1.13 4.81-.39 1.39.69 2.17 2.3 2.2 3.86s-.56 3.06-1.32 4.42c-2.59 4.66-5.96 8.7-11.18 9.82" fill="#ebebeb"/>
    <path d="M88.05 51.85c-.08.02-.64-1.44-1.34-3.9-.35-1.23-.6-2.77-.66-4.46-.05-1.68-.15-3.53.05-5.5.34-3.92 1.7-7.33 3.15-9.45.72-1.07 1.44-1.83 1.94-2.33.53-.48.85-.72.88-.68.09.09-1.1 1.14-2.41 3.28-1.3 2.13-2.54 5.44-2.87 9.25-.19 1.89-.11 3.74-.1 5.41.03 1.67.21 3.13.49 4.36.57 2.46.97 3.99.86 4.01Z" fill="#e0e0e0"/>
    <path d="M64.05 8.86s.46.59 1.18 1.72 1.74 2.78 2.99 4.83c2.49 4.1 5.87 9.79 9.44 16.18 3.57 6.39 6.65 12.26 8.78 16.55 1.07 2.15 1.91 3.89 2.47 5.11.56 1.22.85 1.9.81 1.92-.04.02-.41-.62-1.05-1.8-.69-1.29-1.58-2.98-2.66-5.01a800.68 800.68 0 0 0-8.95-16.43c-3.58-6.3-6.83-12-9.26-16.27-1.13-2-2.07-3.66-2.8-4.94-.65-1.17-.99-1.83-.95-1.86Z" fill="#e0e0e0"/>
    <path d="M80.81 42.2c-5.43-5.3-13.53-7.71-20.98-6.25-1.9.37-4.05 1.3-4.42 3.19-.37 1.9 1.28 3.58 2.92 4.6 6.83 4.27 16.29 3.83 22.69-1.06" fill="#ebebeb"/>
    <path d="M64.12 39.65s.38-.11 1.08-.18c.7-.08 1.72-.13 2.98-.15 2.5.01 6.07.13 9.73 1.53 1.82.7 3.43 1.68 4.73 2.77 1.31 1.08 2.25 2.29 2.97 3.33.69 1.07 1.18 1.97 1.44 2.63.28.65.41 1.01.37 1.03-.13.06-.75-1.37-2.21-3.37-.76-.97-1.71-2.11-2.98-3.12a17.509 17.509 0 0 0-4.57-2.61c-3.52-1.35-7.01-1.56-9.49-1.69-2.49-.09-4.05-.05-4.05-.16Z" fill="#e0e0e0"/>
    <path d="M298.03 368.28c-1.21-2.61-1.03-5.72.04-8.38 1.07-2.67 2.97-4.93 5.12-6.84 4.14-3.71 10.2-5.78 15.66-6.82.77 6.13-3.15 12.12-5.33 15.04-3.44 4.61-12.46 10.86-15.5 7M320.88 335.83c-1.52 2.83-4.77 4.52-7.98 4.51-3.21 0-6.31-1.56-8.54-3.87-1.03-1.07-1.93-2.46-1.76-3.93.17-1.38 1.29-2.5 2.59-2.99 1.3-.49 2.74-.44 4.11-.2 4.69.8 9.09 2.43 11.58 6.48" fill="#ebebeb"/>
    <path d="M333.5 329.96c.04.06-1.02.97-2.88 2.28-.93.66-2.15 1.33-3.55 1.88-1.4.54-2.93 1.17-4.64 1.59-3.4.88-6.67.75-8.88.16-1.11-.29-1.97-.66-2.54-.94-.56-.31-.86-.5-.84-.54.05-.1 1.29.59 3.48 1.05 2.18.46 5.33.52 8.63-.33 1.65-.41 3.18-1.02 4.58-1.52 1.39-.52 2.57-1.11 3.52-1.71 1.9-1.21 3.07-2 3.12-1.92Z" fill="#e0e0e0"/>
    <path d="M304.48 362.91s.36-.56 1.09-1.5c.74-.94 1.82-2.29 3.17-3.95 2.7-3.31 6.49-7.84 10.8-12.74 4.31-4.9 8.33-9.23 11.31-12.3 1.49-1.53 2.71-2.76 3.57-3.59.86-.83 1.35-1.28 1.38-1.25.03.03-.4.53-1.2 1.42-.88.96-2.03 2.22-3.42 3.73-2.89 3.14-6.86 7.51-11.16 12.41l-10.93 12.61c-1.35 1.55-2.46 2.83-3.32 3.82-.79.89-1.25 1.38-1.28 1.35Z" fill="#e0e0e0"/>
    <path d="M327.54 338.92c-2.84 6.14-2.47 13.67.98 19.5.88 1.48 2.29 3.02 4 2.77s2.63-2.14 3-3.82c1.56-7.01-1.62-14.83-7.63-18.76" fill="#ebebeb"/>
    <path d="M330.34 353.71s-.21-.29-.47-.86c-.28-.56-.62-1.41-1.01-2.46-.73-2.11-1.69-5.15-1.6-8.64.05-1.74.4-3.38.92-4.79.52-1.42 1.26-2.57 1.92-3.49.69-.9 1.3-1.58 1.78-1.99.46-.43.73-.65.76-.62.09.09-.93 1.04-2.18 2.86-.59.93-1.27 2.06-1.74 3.43a15.75 15.75 0 0 0-.84 4.62c-.09 3.36.77 6.36 1.4 8.48.67 2.12 1.16 3.42 1.07 3.46Z" fill="#e0e0e0"/>
  </g>
  <g data-name="Stains">
    <path d="M1.06 144.85c-4.21-24.29 4.23-51.14 23.63-66.36 19.4-15.22 49.53-16.35 68.32-.38 13.21 11.23 19.4 28.37 27.26 43.82 7.86 15.45 19.8 31.09 36.93 33.76 14.78 2.3 29.64-5.78 44.47-3.84 14.48 1.89 26.6 13.73 30.77 27.73 4.17 13.99 1.05 29.53-6.42 42.07s-18.97 22.31-31.55 29.71c-40.49 23.81-94.22 23.04-134-1.93C20.67 224.46-3.39 176.41.45 129.59" fill="#d4e6ff" stroke-width="0"/>
    <path d="M1.06 144.85c-4.21-24.29 4.23-51.14 23.63-66.36 19.4-15.22 49.53-16.35 68.32-.38 13.21 11.23 19.4 28.37 27.26 43.82 7.86 15.45 19.8 31.09 36.93 33.76 14.78 2.3 29.64-5.78 44.47-3.84 14.48 1.89 26.6 13.73 30.77 27.73 4.17 13.99 1.05 29.53-6.42 42.07s-18.97 22.31-31.55 29.71c-40.49 23.81-94.22 23.04-134-1.93C20.67 224.46-3.39 176.41.45 129.59" fill="#d4e6ff" stroke-width="0" opacity=".7"/>
    <path d="M235.63 362.36c13.14-8.97 19.33-28.77 11.11-42.39-8.32-12.41-21.24-22.3-36.04-24.38-14.79-2.08-31.14 4.89-37.73 18.3-4.15 8.44-4.16 18.64-.72 27.4 3.44 8.75 10.14 16.05 18.19 20.91 13.63 8.22 32.05 9.14 45.19.17Z" fill="#e8505b" stroke-width="0"/>
    <path d="M235.63 362.36c13.14-8.97 19.33-28.77 11.11-42.39-8.32-12.41-21.24-22.3-36.04-24.38-14.79-2.08-31.14 4.89-37.73 18.3-4.15 8.44-4.16 18.64-.72 27.4 3.44 8.75 10.14 16.05 18.19 20.91 13.63 8.22 32.05 9.14 45.19.17Z" fill="#fff" stroke-width="0" opacity=".7"/>
    <path d="M662.63 279.53c-.82-21.05-11.24-41.92-28.7-53.7-17.46-11.78-41.77-13.39-59.77-2.44-11.21 6.82-19.34 17.69-26.11 28.92-3.71 6.16-7.58 12.95-14.25 15.64-8.67 3.51-18.2-1.27-27.37-3.1-12.01-2.4-25.01.63-34.72 8.09-7.4 5.68-12.8 13.87-15.3 22.85-8.02 33.19 15.26 56.89 40.15 71.27 27.81 16.07 62.96 16.06 93.24 5.33 19.85-7.03 38.36-18.6 51.88-34.75 13.52-16.15 21.77-37.06 20.95-58.11Z" fill="#d4e6ff" stroke-width="0"/>
    <path d="M662.63 279.53c-.82-21.05-11.24-41.92-28.7-53.7-17.46-11.78-41.77-13.39-59.77-2.44-11.21 6.82-19.34 17.69-26.11 28.92-3.71 6.16-7.58 12.95-14.25 15.64-8.67 3.51-18.2-1.27-27.37-3.1-12.01-2.4-25.01.63-34.72 8.09-7.4 5.68-12.8 13.87-15.3 22.85-8.02 33.19 15.26 56.89 40.15 71.27 27.81 16.07 62.96 16.06 93.24 5.33 19.85-7.03 38.36-18.6 51.88-34.75 13.52-16.15 21.77-37.06 20.95-58.11Z" fill="#d4e6ff" stroke-width="0" opacity=".7"/>
    <path d="M614.83 99.72c-2.57-16.8-18.77-31.9-35.69-30.28-15.79 2.28-31.28 10.16-40.12 23.44-8.84 13.28-9.67 32.25.2 44.78 6.21 7.89 16.03 12.61 26.05 13.34 10.02.73 20.13-2.35 28.53-7.86 14.21-9.32 23.6-26.63 21.03-43.43Z" fill="#e8505b" stroke-width="0"/>
    <path d="M614.83 99.72c-2.57-16.8-18.77-31.9-35.69-30.28-15.79 2.28-31.28 10.16-40.12 23.44-8.84 13.28-9.67 32.25.2 44.78 6.21 7.89 16.03 12.61 26.05 13.34 10.02.73 20.13-2.35 28.53-7.86 14.21-9.32 23.6-26.63 21.03-43.43Z" fill="#fff" stroke-width="0" opacity=".7"/>
  </g>
  <g data-name="Character 2">
    <g stroke-width="0">
      <path d="M419.04 103.93c2.17-.27 3.91-1.87 5.89-2.8 2.96-1.39 6.61-1.21 9.42.47 2.81 1.68 4.81 3.7 4.98 6.97l-3.67 4" fill="#263238"/>
      <path d="m442.27 124.36-5.9 35.42c-1 6.02-3.71 14.67-13.16 12.65-8.07-2.37-8.85-10.55-7.91-16.17.45-2.67.81-4.89.84-5.17 0 0-8.87-2.35-8.04-11.38.4-4.36 1.97-13.29 3.47-21.34 1.62-8.65 9.62-14.6 18.37-13.69l.87.09c9.33 1.53 13.24 10.31 11.45 19.59Z" fill="#f4d3bd"/>
      <path d="M416.15 150.96s5.65 1.06 12.11-2.11c0 0-3.46 6.2-12.38 4.44l.27-2.33Z" fill="#eaae94"/>
      <g fill="#263238">
        <path d="M412.4 123.77c.18.16 1.41-.3 3.07-.1 1.67.18 2.84.93 3.03.81.09-.05-.08-.33-.59-.66-.5-.33-1.37-.7-2.41-.82s-1.94.04-2.46.26c-.54.21-.73.45-.64.52ZM426.1 125.3c.18.16 1.4-.29 3.06-.09 1.66.18 2.83.92 3.02.8.09-.05-.08-.32-.59-.65-.5-.33-1.37-.69-2.4-.81-1.03-.12-1.93.04-2.45.25-.53.21-.73.44-.64.51ZM425.79 127.52c-.07.52.31 1.02.85 1.1.54.09 1.05-.27 1.12-.79.07-.52-.31-1.02-.85-1.1-.55-.09-1.05.27-1.12.79ZM412.84 126.1c-.07.52.31 1.02.85 1.1.54.09 1.05-.27 1.12-.79.07-.52-.31-1.02-.85-1.1-.55-.09-1.05.27-1.12.79ZM420.55 134.44c.01-.08-.83-.32-2.21-.64-.35-.07-.68-.18-.71-.43-.06-.26.13-.63.35-1.02.42-.82.87-1.68 1.33-2.59 1.86-3.69 3.24-6.73 3.09-6.8-.15-.07-1.77 2.85-3.63 6.54l-1.29 2.61c-.18.39-.45.82-.33 1.37.07.27.31.49.53.58.22.09.42.12.59.15 1.4.22 2.27.32 2.28.24ZM427.78 119.25c.08.36 1.32.32 2.74.65 1.42.3 2.53.86 2.76.57.1-.14-.07-.48-.5-.87-.43-.38-1.14-.77-1.99-.96-.85-.19-1.65-.13-2.2.04-.55.16-.84.41-.81.57ZM413.13 119.47c.11.3 1.32.21 2.74.42 1.42.18 2.55.6 2.75.34.09-.12-.1-.41-.55-.71-.45-.3-1.17-.6-2.02-.72-.85-.12-1.64-.03-2.16.14-.53.17-.8.39-.76.53Z"/>
      </g>
      <path d="M440.83 130.96c.16-.05 6.39-1.18 5.55 4.96-.84 6.15-6.84 4.03-6.83 3.85.01-.18 1.28-8.82 1.28-8.82Z" fill="#f4d3bd"/>
      <path d="M441.75 137.71s.1.09.27.2c.17.1.46.2.8.13.68-.15 1.37-1.11 1.55-2.21.09-.56.05-1.11-.09-1.57-.13-.48-.37-.83-.69-.93a.542.542 0 0 0-.67.21c-.11.16-.08.29-.12.29-.02.01-.12-.12-.03-.37.04-.12.13-.25.29-.35.16-.1.39-.13.61-.08.47.1.84.59.99 1.11.18.52.24 1.14.14 1.76-.21 1.23-1 2.3-1.93 2.44-.45.05-.79-.13-.96-.3-.17-.18-.18-.32-.16-.33Z" fill="#eaae94"/>
      <path d="M409.87 116.29c3.86 1.47 8.43.94 11.85-1.39 2.39-1.63 4.36-4.13 7.2-4.69 1.91-.38 3.93.24 5.52 1.35 1.6 1.11 2.82 2.69 3.84 4.35-2.22 4.4-1.59 9.64-.9 14.52.08.54.17 1.12.57 1.5.67.64 1.81.31 2.51-.29 1.13-.96 1.68-2.42 2.09-3.85.94-3.24 1.38-6.66.99-10.01-.39-3.35-1.65-6.64-3.83-9.22-2.73-3.22-6.82-5.17-11.02-5.54-4.2-.38-8.48.77-12.09 2.94-1.68 1.01-3.26 2.28-4.24 3.97" fill="#263238"/>
      <path d="M410.4 124.81c.58-2.48.85-5.61 1.43-8.09 3.9.53 8.04-.36 11.15-2.77 1.64-1.27 3.06-2.98 5.05-3.55 2.57-.74 5.23.61 7.56 1.92l-.09-.11c1.19.83 2.21 1.89 3 3.1a35.398 35.398 0 0 0-1.13 14.97c.11.75.52 1.45 1.17 1.85 1.28.78 2.22-.1 3.18-.69.7-.44 1.7-.71 2.3-.14 1.86-3.11 3.24-6.5 4.06-10.03-.35 1.13.22 2.47 1.27 3 1.06.53 2.47.18 3.16-.78a5.322 5.322 0 0 1-1.22-2.51c1.27 1.21 3.59 1.03 4.65-.37l-1.95-1.95c.93.05 1.85.1 2.78.14-2.16-.94-3.79-2.75-5.28-4.57-1.49-1.82-2.94-3.74-4.91-5.02-1.97-1.28-4.64-1.8-6.67-.62.14-3.25-2.19-6.26-5.14-7.62-2.95-1.37-8-1.77-11.18-1.11-2.46.51-5.02 2.01-8.21 4.3-1.53 1.1-2.97 2.32-4.26 3.69-1.94 2.04-5.8 5.4-9.51 4.4l.33 3.82c1.96 1.92 6.13.23 6.13.23s-2.38 2.37-4.61 2.31l.59 3.28s3.37.59 4.85-2.01l1.51 4.94Z" fill="#263238"/>
      <path d="M438.28 115.92s-.29-.48-.91-1.29c-.62-.78-1.57-1.95-3.1-2.87-.78-.43-1.7-.79-2.72-1.05-1.02-.25-2.14-.44-3.25-.07-2.26.68-3.91 2.97-6.33 4.42-2.37 1.53-5.08 2.25-7.52 2.24-.61 0-1.2-.03-1.78-.08-.28-.03-.52-.04-.74.04-.22.08-.46.23-.7.35-.88.47-1.34 1.41-1.9 2.13a5.367 5.367 0 0 1-3.7 2.19c-.51.07-.91.05-1.18.03-.27-.03-.41-.06-.41-.07 0-.05.57.03 1.56-.15.97-.17 2.42-.73 3.44-2.21.53-.7.96-1.7 1.99-2.29.24-.12.45-.27.75-.38.31-.12.64-.1.92-.07.56.04 1.14.07 1.73.06 2.37-.02 4.96-.72 7.27-2.2 1.17-.72 2.17-1.6 3.18-2.45 1-.84 2.07-1.63 3.29-1.99 1.22-.39 2.45-.15 3.48.11 1.05.29 1.99.67 2.79 1.14 1.59 1 2.49 2.23 3.08 3.06.29.43.48.77.6 1.02.12.24.16.38.15.38ZM447.99 121.33s-.03.19-.17.51c-.14.31-.35.78-.79 1.28-.42.48-1.18 1-2.14.87-.48-.07-.95-.4-1.2-.86-.26-.46-.35-1.01-.28-1.56l.46.12c-.27.69-1 1.12-1.74 1.17-.7.07-1.37-.25-1.82-.68-.47-.43-.77-.96-.97-1.49-.37-1.07-.37-2.06-.41-2.87-.03-1.62-.38-2.55-.32-2.57.07-.04.55.91.67 2.55.09.8.13 1.77.49 2.73.18.47.47.93.87 1.29.4.35.92.6 1.46.54.59-.04 1.14-.37 1.33-.85l.82-2.07-.36 2.2c-.15.9.33 1.83 1.08 1.94.75.14 1.44-.25 1.84-.67.42-.43.68-.86.86-1.15.18-.29.29-.45.32-.43ZM445.72 128.08s-.58.45-1.72.45c-1.12.01-2.69-.52-3.93-1.71-1.23-1.2-1.91-2.59-2.36-3.58-.44-1-.64-1.64-.58-1.67.07-.03.38.56.89 1.51.52.94 1.23 2.26 2.38 3.38 1.15 1.11 2.57 1.65 3.61 1.72 1.05.09 1.68-.19 1.71-.1Z" fill="#455a64"/>
      <path d="M445.44 129.24c0 .05-.57.18-1.52.11-.94-.07-2.25-.42-3.5-1.18-1.24-.77-2.14-1.77-2.64-2.58s-.65-1.38-.6-1.4c.07-.03.33.48.88 1.21s1.43 1.63 2.61 2.36a9.76 9.76 0 0 0 3.28 1.25c.9.16 1.47.16 1.48.24ZM449.41 106.22c-.03.08-.6-.1-1.54-.21-.94-.12-2.26-.12-3.65.22-1.4.35-2.56.97-3.33 1.51-.78.54-1.2.96-1.26.91-.04-.03.29-.55 1.05-1.19.75-.64 1.95-1.34 3.43-1.71 1.47-.36 2.87-.3 3.83-.09s1.5.51 1.48.56Z" fill="#455a64"/>
      <path d="M441.06 100.86c.1-.07.93 1.84.53 4.28-.37 2.45-1.74 4.01-1.81 3.92-.13-.08.99-1.68 1.33-3.99.38-2.3-.2-4.17-.05-4.21Z" fill="#455a64"/>
      <path d="M405.14 112.05c.04-.05.37.45 1.28.73.92.28 2.34.1 3.98-.47.82-.27 1.71-.63 2.68-1 .97-.34 1.94-.8 2.93-1.39 1.99-1.14 3.98-2.77 6.48-3.88 1.24-.54 2.54-.92 3.84-.99 1.29-.09 2.57.21 3.63.75 2.1 1.1 3.59 2.62 5.19 3.26 1.59.65 3.07.57 3.93.18.88-.4 1.15-.92 1.2-.88.01 0-.06.12-.21.34-.18.19-.45.49-.9.71-.89.48-2.46.61-4.14-.03-1.7-.64-3.25-2.16-5.26-3.17-1.01-.5-2.18-.76-3.41-.67-1.22.07-2.47.43-3.67.96-2.41 1.07-4.41 2.68-6.45 3.82-1.01.58-2.04 1.05-3.02 1.38-.96.34-1.86.69-2.71.95-1.67.53-3.18.67-4.15.32-.47-.18-.79-.42-.98-.61-.18-.19-.26-.3-.25-.31Z" fill="#455a64"/>
      <path d="M439.98 108.54c-.08.06-.78-1.06-2.37-2.41-1.57-1.33-4.16-2.83-7.31-3.19-1.56-.18-3.09-.05-4.47.05-1.39.11-2.66.16-3.72.08-1.07-.08-1.91-.31-2.46-.54-.55-.22-.83-.42-.81-.44.04-.1 1.2.57 3.3.63 1.04.04 2.28-.05 3.66-.18 1.38-.12 2.93-.28 4.57-.09 3.28.37 5.93 1.98 7.48 3.41.79.72 1.33 1.39 1.68 1.87.34.49.49.78.47.8Z" fill="#455a64"/>
      <path d="M422.84 140.77c-.11.13-.98-.79-2.38-1.03-.69-.13-1.35-.07-1.83-.03-.48.04-.8.05-.81-.02-.01-.06.27-.19.75-.32a4.57 4.57 0 0 1 1.98-.11c.79.13 1.42.53 1.8.86.39.34.54.62.5.65Z" fill="#263238"/>
    </g>
    <path d="m582.14 310.76 16.37-9.28s14.93 13.53 18.12 12.11l-16.85-32.39-26.1 13.41 8.46 16.15Z" fill="#963e63" stroke-width="0"/>
    <path d="M591.9 292.2c-.15-.72.32-1.52 1.03-1.7.71-.18 1.53.3 1.69 1.01.17.71-.38 1.69-1.1 1.79-.73.1-1.65-.51-1.65-1.25M599.78 281.2l-2.58 1.45 17.12 30.51s1.38 1.12 2.31.42l-16.85-32.39Z" fill="#fff" stroke-width="0" opacity=".6"/>
    <path d="M598.62 302.09c.16-.09-.18-.92-.08-1.96.08-1.05.55-1.8.41-1.92-.11-.13-.93.6-1.03 1.86-.11 1.26.57 2.12.7 2.01ZM601.79 304.76c.17-.04.08-.87.47-1.75.36-.9 1.02-1.41.93-1.56-.05-.16-1.04.21-1.5 1.32-.47 1.11-.06 2.07.1 2ZM606.86 304.57c-.04-.16-.95.03-1.6.89-.66.85-.61 1.78-.45 1.77.18.02.39-.7.94-1.4.53-.71 1.18-1.1 1.11-1.27ZM594.65 303.79c.11-.14-.49-.75-.89-1.68-.42-.92-.48-1.77-.66-1.78-.16-.03-.39.95.1 2.04.48 1.09 1.37 1.57 1.46 1.42Z" fill="#263238" stroke-width="0"/>
    <path stroke-width="0" d="m585.38 308.92 2.92-1.65-8.43-15.85-2.69 1.38 8.2 16.12z" opacity=".3"/>
    <path d="M591.31 305.6c.07-.03-.16-.71-.85-1.62-.34-.45-.81-.95-1.4-1.43-.3-.24-.62-.46-.98-.67-.17-.1-.36-.23-.64-.29-.26-.09-.73.03-.88.37-.16.3-.12.64 0 .88s.27.41.4.56c.28.32.57.59.87.83.6.47 1.22.79 1.76.99 1.09.39 1.81.34 1.81.27.01-.1-.67-.21-1.64-.67a7.69 7.69 0 0 1-1.57-1.02c-.27-.23-.53-.49-.77-.78-.27-.3-.42-.59-.32-.75.04-.06.06-.08.2-.06.13.03.29.12.47.22.34.19.65.39.94.6.57.42 1.05.86 1.42 1.26.74.79 1.1 1.38 1.19 1.33Z" fill="#263238" stroke-width="0"/>
    <path d="M591.43 305.28c0-.07-.73-.09-1.79.39a5.935 5.935 0 0 0-2.43 2.08c-.22.36-.53.81-.28 1.46.15.33.54.46.8.44.27 0 .47-.08.68-.14a4.273 4.273 0 0 0 2.41-2.13c.51-1.07.36-1.83.3-1.81-.11-.01-.13.7-.68 1.6-.27.45-.69.93-1.26 1.31-.28.19-.6.35-.95.46-.37.13-.72.14-.75 0-.09-.16.03-.57.24-.84.2-.32.43-.6.67-.86.48-.51.99-.89 1.46-1.16.93-.54 1.61-.68 1.59-.78Z" fill="#263238" stroke-width="0"/>
    <path d="m535.48 336.27 18.57-3.05s9.33 17.85 12.82 17.62l-4.62-36.22-29.13 3.56 2.35 18.08Z" fill="#963e63" stroke-width="0"/>
    <path d="M551.05 322.22c.1-.73.83-1.31 1.56-1.24.73.07 1.33.81 1.24 1.53-.09.73-.94 1.46-1.66 1.3-.72-.15-1.38-1.05-1.11-1.74M562.25 314.63l-2.92.47 5.52 34.55s.91 1.52 2.02 1.2l-4.62-36.22Z" fill="#fff" stroke-width="0" opacity=".6"/>
    <path d="M553.94 333.83c.18-.03.14-.92.6-1.87.43-.95 1.14-1.5 1.05-1.65-.06-.16-1.08.24-1.61 1.39-.54 1.15-.2 2.19-.04 2.13ZM555.99 337.43c.18.02.38-.79 1.05-1.48.65-.72 1.44-.97 1.41-1.15 0-.17-1.04-.16-1.86.72-.83.87-.77 1.92-.6 1.91ZM560.81 339.01c.02-.17-.9-.3-1.81.28-.92.57-1.19 1.45-1.03 1.51.16.08.61-.52 1.36-.98.74-.48 1.48-.63 1.48-.8ZM549.63 334.06c.15-.09-.2-.87-.26-1.88-.08-1.01.16-1.83 0-1.9-.14-.09-.7.76-.61 1.94.08 1.19.75 1.94.87 1.84Z" fill="#263238" stroke-width="0"/>
    <path stroke-width="0" d="m539.15 335.66 3.31-.54-2.43-17.78-3 .36 2.12 17.96z" opacity=".3"/>
    <path d="M545.87 334.6c.07 0 .09-.72-.24-1.81-.17-.54-.43-1.18-.82-1.82-.2-.32-.42-.65-.69-.97-.13-.15-.26-.34-.5-.49-.21-.17-.69-.22-.95.04-.25.22-.33.56-.31.83.03.27.11.48.18.67a6.374 6.374 0 0 0 1.84 2.61c.89.74 1.58.94 1.61.88.05-.09-.56-.43-1.31-1.2-.37-.39-.77-.89-1.12-1.5-.17-.31-.33-.64-.45-1-.15-.37-.19-.7-.04-.82.06-.04.09-.05.21.01.11.07.24.21.36.36.25.29.47.59.67.89.39.59.68 1.17.9 1.67.42 1 .56 1.68.65 1.66Z" fill="#263238" stroke-width="0"/>
    <path d="M546.09 334.34c.02-.07-.66-.34-1.81-.26a5.905 5.905 0 0 0-2.99 1.1c-.33.26-.78.58-.77 1.27.03.36.35.62.6.69.26.09.47.09.69.1.43.01.85-.05 1.22-.15a4.13 4.13 0 0 0 1.77-1.01c.85-.83.97-1.59.9-1.6-.1-.05-.36.61-1.19 1.27-.41.32-.97.64-1.63.79-.33.08-.69.12-1.05.1-.39 0-.72-.11-.7-.26-.03-.18.23-.52.51-.71.3-.23.61-.42.93-.57.63-.31 1.24-.49 1.77-.58 1.06-.19 1.74-.08 1.76-.18Z" fill="#263238" stroke-width="0"/>
    <g stroke-width="0">
      <path d="M459.24 236.08c-.58.23 8.8 9.25 10.3 15.36 1.82 7.37 6.75 15.8 6.75 15.8l34.62 33.16 65.2-9.54 11.01 20.1-78.64 21.31c-4.23 1.15-8.75.29-12.27-2.33l-50.69-37.7-29.08-36 42.78-20.16Z" fill="#004e61"/>
      <path d="m411.62 258.98 4.2 15.43c11.79 24.35 34.23 70.43 40.16 73.4 8.26 4.13 84.24-11.01 84.24-11.01l-1.65-20.92-63.75 5.5-42.64-74.9-20.55 12.5Z" fill="#004e61"/>
      <path d="M582.09 312.32s-.14.06-.43.15c-.31.09-.73.22-1.28.39-1.15.34-2.81.82-4.93 1.44-4.31 1.24-10.51 3.01-18.17 5.21-7.68 2.18-16.82 4.78-26.97 7.66-5.08 1.44-10.41 2.94-15.93 4.51-1.39.38-2.76.8-4.19 1.16a19.801 19.801 0 0 1-13.25-1.45c-1.39-.67-2.68-1.52-3.87-2.45-1.19-.92-2.37-1.84-3.55-2.74a378.8 378.8 0 0 1-6.82-5.5c-4.43-3.66-8.65-7.25-12.6-10.76a408.24 408.24 0 0 1-20.4-19.24c-5.6-5.69-9.88-10.54-12.68-14.02-.69-.87-1.31-1.65-1.84-2.33-.5-.69-.92-1.28-1.27-1.77-.33-.47-.59-.83-.77-1.09-.17-.25-.25-.38-.25-.38s.11.11.29.35c.2.26.46.61.81 1.06.36.48.79 1.05 1.3 1.74.55.67 1.17 1.43 1.87 2.3 2.84 3.44 7.15 8.24 12.78 13.9 5.63 5.65 12.52 12.19 20.45 19.15 3.95 3.5 8.18 7.07 12.6 10.73 2.21 1.82 4.49 3.65 6.82 5.49 1.17.91 2.35 1.82 3.54 2.74 1.18.92 2.43 1.74 3.79 2.39 2.7 1.31 5.68 1.97 8.61 1.94 1.46-.01 2.91-.19 4.32-.52 1.4-.35 2.8-.77 4.18-1.15 5.53-1.55 10.86-3.05 15.94-4.48 10.16-2.84 19.3-5.4 26.99-7.56 7.67-2.13 13.89-3.86 18.21-5.06 2.14-.58 3.8-1.04 4.96-1.35.55-.14.98-.26 1.29-.34.29-.07.45-.1.45-.1ZM432.91 259.94c.05.07-.42.28-.51.96-.04.32.02.74.29 1.02.26.29.75.36 1.19.17.44-.19.73-.6.69-.99-.02-.39-.29-.72-.55-.91-.56-.39-1.03-.2-1.05-.28-.01-.02.08-.12.3-.17.22-.06.57-.04.93.15.35.19.75.57.82 1.17.09.6-.35 1.23-.95 1.48-.58.27-1.34.16-1.72-.32-.38-.46-.39-1.01-.29-1.4.11-.4.34-.66.52-.78.19-.12.32-.13.33-.1ZM466.12 250.92s-.18.25-.57.61c-.4.37-1.01.85-1.83 1.37-1.62 1.04-4.16 2.13-7.14 2.36-2.98.23-5.66-.46-7.42-1.24-.89-.39-1.57-.78-2.02-1.08-.45-.3-.68-.49-.66-.52.05-.08 1.04.59 2.81 1.27 1.76.68 4.37 1.29 7.25 1.07 2.88-.22 5.36-1.23 7-2.17 1.65-.94 2.53-1.76 2.58-1.69Z" fill="#455a64"/>
    </g>
    <g stroke-width="0">
      <path d="M524.96 195.57s-45.33-17.02-48.08-19.46c-2.75-2.44-14.73-15.97-19.7-17.75 0 0-8.08-2.12-13.58-1.81l-5.81.69v-4.41l-23.88.39-.66 5.88-4.07 1.54s-9.56 19.96-9.56 29.12-4.72 62.51 4.58 72.77c1.43 1.57 6.98.55 6.98.55s26.84-2.86 53.52-21.51l-9.77-11.29s-3.46-23.58.58-40.52c.09-.37.17-.74.25-1.1 11.56 5.7 29.33 14.02 34.56 14.02 0 0 29.23 9.87 34.64 3.55.62-.72 0-10.66 0-10.66Z" fill="#429cac"/>
      <path d="M413.82 159.75s-9.35.38-15.44 7.95-16 39.86-16 39.86l-13.64-13.99-12.96 7.22s18.38 25.62 21.98 28.58c.9.74 4.83 2.68 6.64 2.84 8.73.76 14.63-8.14 16.43-15.47l5.97-30.13" fill="#429cac"/>
      <path d="m359.69 198.54-14-8.31s-4.23-10.02-2.61-10.47c1.62-.45 2.99 5.57 2.99 5.57l2.01.96s-2.73-5.08-1.78-5.57 2.28 1.01 3.01 2.17c.56.89 2.36 4.57 2.36 4.57l.95-1.29-.75-3.41s-.99-2.28.12-2.3 1.11-.1 1.93 1.78c.83 1.88 1.41 3.3 1.41 3.3s4.08 2.43 4.95 2.16c2.34-.73 4.01.31 4.01.31s3.88 2 2.94 6.14" fill="#f4d3bd"/>
      <path d="M454.39 161.07c.07.03-.3.97-.74 2.52-.45 1.55-.91 3.74-1.05 6.19-.13 2.46.08 4.68.35 6.27.27 1.59.54 2.56.46 2.59-.05.02-.44-.92-.8-2.52-.36-1.59-.64-3.86-.5-6.37.14-2.5.67-4.73 1.21-6.27.54-1.55 1.03-2.44 1.08-2.42ZM416.93 159.82c-.13 0-.33-1.51-.26-3.4.07-1.88.39-3.38.52-3.37.14.02.04 1.53-.03 3.39-.08 1.86-.1 3.37-.24 3.38ZM422.51 160.66c-.14-.01-.1-1.72.09-3.82.18-2.1.44-3.79.58-3.78.14.01.1 1.72-.09 3.82-.18 2.1-.44 3.79-.58 3.78ZM429.95 160.46c-.14-.04.21-1.66.35-3.7.15-2.03.03-3.69.17-3.71.13-.02.47 1.65.32 3.74-.14 2.09-.72 3.7-.84 3.66ZM435.41 159.09c-.14-.03.08-1.41.05-3.11-.02-1.7-.28-3.07-.14-3.1.12-.04.61 1.33.63 3.1.03 1.77-.42 3.15-.54 3.11ZM400.11 171.98c.14 0 0 13.06-.3 29.16-.3 16.11-.66 29.16-.79 29.15-.14 0 0-13.06.3-29.16s.66-29.15.79-29.15Z" fill="#263238"/>
      <path d="M399.21 202.67c-.04.06-.78-.39-1.96-1.11-1.18-.71-2.82-1.71-4.78-2.44-1.96-.72-3.87-.9-5.22-.76-1.36.13-2.16.47-2.19.39-.03-.04.74-.51 2.15-.74 1.4-.24 3.41-.1 5.43.65 2.02.75 3.66 1.82 4.8 2.61 1.14.8 1.81 1.35 1.77 1.4ZM453.87 193.52s-.15.12-.47.31c-.36.21-.82.48-1.38.8-.6.35-1.34.76-2.23 1.19-.89.43-1.88.97-3.03 1.44-1.14.51-2.38 1.05-3.76 1.55-1.36.55-2.85 1.01-4.41 1.52-3.15.95-6.67 1.81-10.42 2.41-3.76.57-7.37.82-10.66.88-1.65-.01-3.21 0-4.67-.11-1.46-.06-2.82-.19-4.05-.33-1.24-.1-2.35-.31-3.32-.45-.98-.14-1.81-.3-2.49-.46l-1.56-.34c-.36-.08-.54-.14-.54-.15 0-.02.2 0 .56.06.41.07.94.15 1.58.25.68.12 1.52.26 2.5.37.98.12 2.08.3 3.32.38 1.23.11 2.58.23 4.04.27 1.45.09 3.01.06 4.64.06 3.27-.08 6.86-.35 10.59-.91 3.73-.6 7.23-1.44 10.37-2.35 1.56-.5 3.05-.94 4.4-1.47 1.37-.48 2.62-1 3.76-1.48 1.15-.45 2.15-.96 3.05-1.37.9-.4 1.65-.79 2.26-1.11.58-.29 1.05-.53 1.43-.72.33-.16.51-.24.51-.22ZM480.19 179.04c.04.07-.8.64-2.03 1.7a25.994 25.994 0 0 0-4.26 4.69 26.214 26.214 0 0 0-2.97 5.6c-.58 1.52-.83 2.51-.91 2.49-.03 0 0-.26.08-.71.08-.46.25-1.1.5-1.89.5-1.57 1.44-3.69 2.89-5.76 1.46-2.07 3.13-3.67 4.44-4.68.65-.5 1.21-.88 1.61-1.11.4-.23.63-.35.64-.32ZM485.25 180.61c.04.08-.98.53-2.47 1.51-1.49.97-3.41 2.53-5.11 4.65-1.69 2.12-2.8 4.34-3.42 6.01-.62 1.67-.84 2.76-.93 2.74-.03 0 0-.28.08-.78.07-.5.25-1.21.52-2.07.54-1.72 1.63-4.03 3.36-6.2 1.74-2.16 3.75-3.73 5.31-4.63.78-.46 1.44-.78 1.91-.96.47-.19.73-.28.75-.25ZM454.23 189.42s-.17.1-.5.24c-.39.16-.88.36-1.48.6-.64.26-1.43.57-2.36.88-.93.32-1.98.71-3.17 1.06-2.36.76-5.2 1.53-8.4 2.26-3.2.7-6.75 1.33-10.5 1.78-3.76.43-7.36.62-10.63.68-3.28.02-6.22-.07-8.69-.27-1.24-.07-2.35-.21-3.33-.31-.98-.09-1.82-.21-2.5-.32-.64-.1-1.16-.18-1.57-.25-.36-.06-.55-.1-.54-.12 0-.02.19 0 .56.02l1.58.15c.69.08 1.53.17 2.5.23.98.07 2.09.19 3.32.24 2.46.15 5.4.22 8.66.17 3.26-.08 6.84-.29 10.58-.71 3.74-.45 7.27-1.06 10.46-1.73 3.18-.7 6.03-1.44 8.39-2.15 1.19-.33 2.24-.7 3.18-.99.94-.29 1.73-.57 2.38-.8.61-.21 1.11-.38 1.51-.51.35-.11.53-.16.54-.15ZM399.71 195.08c-.1.13-2.19-1.69-5.33-2.89-3.12-1.23-5.89-1.32-5.88-1.47 0-.06.69-.12 1.81-.01 1.11.1 2.65.41 4.25 1.03 1.6.62 2.93 1.44 3.82 2.11.89.68 1.36 1.19 1.32 1.23Z" fill="#fafafa"/>
    </g>
    <g stroke-width="0">
      <path d="m539.88 191.81-9.9 3.32-5.02.44v10.66l5.14 1.76 13.79-.75s7.9 4.01 9.9 3.76c2.01-.25 2.01-.86 2.01-.86l-9.78-5.91s1.5-.5 3.76.5 6.14 3.26 7.52 2.63c1.38-.63 1.13-1.13 1.13-1.13l-7.65-4.82s6.56 2.94 7.67 2.44c1.11-.5 1.24-1.48 1.24-1.48l-4.26-3.79-6.39-5.02-9.15-1.76Z" fill="#f4d3bd"/>
      <path d="M534.38 196.2s.4.13 1.07.44c.68.31 1.65.78 2.84 1.38 1.19.6 2.6 1.31 4.14 2.19.38.22.81.49 1.12.88.32.39.53.88.59 1.41.04.53-.04 1.07-.34 1.56-.32.49-.86.76-1.38.89-.75.17-1.47.19-2.19 0-.69-.18-1.31-.44-1.91-.68-1.2-.51-2.3-1.03-3.3-1.53l.26-.06c-.66.86-1.48 1.48-2.3 1.83-.81.35-1.59.44-2.22.42-.63-.02-1.11-.14-1.42-.24-.32-.1-.47-.19-.46-.21.01-.05.68.23 1.88.21.6-.02 1.33-.13 2.07-.49.75-.35 1.49-.95 2.11-1.77l.1-.14.16.08c1 .47 2.11.98 3.29 1.47.59.24 1.22.48 1.85.65.6.16 1.32.14 1.95-.01.45-.12.87-.34 1.1-.69.22-.35.31-.82.27-1.24-.08-.89-.7-1.55-1.46-1.95-1.5-.89-2.91-1.63-4.07-2.27-1.1-.6-2.02-1.11-2.76-1.52-.65-.37-1-.58-.99-.61ZM551.25 201.43c-.06.09-2.1-.97-4.38-2.71-.32-.25-.62-.51-.89-.78l.3.03c-1.08.63-2.1.7-2.82.76-.72.04-1.15-.06-1.15-.11 0-.06.43-.07 1.11-.2.67-.13 1.69-.3 2.58-.85l.17-.1.14.13c.26.25.55.49.86.73 2.23 1.7 4.17 2.96 4.07 3.1Z" fill="#eaae94"/>
    </g>
    <g stroke-width="0">
      <path d="M568.14 278.07c-1.99 0-3.95-.27-5.9-.85-19.01-5.69-18.02-19.4-17.23-30.41.74-10.27.76-16.73-7.71-19.91-11.2-4.2-15.82-.12-22.8 6.06-8.32 7.36-18.67 16.52-43.77 12.8-13.04-1.93-33.98-8.8-59.7-30.58-15.3-12.95-24.93-24.9-25.34-25.4l3.89-3.12c.38.48 38.77 47.79 81.88 54.17 22.8 3.38 31.8-4.58 39.74-11.61 7.12-6.3 13.84-12.25 27.85-6.99 12.39 4.65 11.61 15.43 10.93 24.93-.8 11.13-1.49 20.74 13.69 25.28 17.1 5.12 39.59-21.97 53.04-38.16 4.79-5.77 8.13-9.95 10.79-12.12l3.76 2.99c-1.66 2.04-6.28 6.97-10.72 12.31-13.69 16.49-33.72 40.6-52.4 40.6Z" fill="#963e63"/>
      <path d="M497.65 238.65s-.19.19-.59.44c-.4.26-1 .6-1.76.98a26.44 26.44 0 0 1-6.28 2.16c-2.55.52-4.93.61-6.63.51-.85-.05-1.53-.12-2-.21-.47-.08-.73-.14-.72-.17 0-.08 1.05.02 2.73.03 1.68.01 4.01-.13 6.52-.64 2.51-.52 4.7-1.31 6.24-1.99 1.54-.67 2.46-1.18 2.5-1.11ZM526.89 223.6c-.02.08-.64-.04-1.63-.05-1-.02-2.38.11-3.81.6-1.43.5-2.6 1.24-3.37 1.87-.78.63-1.19 1.1-1.25 1.05-.04-.03.28-.59 1.02-1.31.74-.72 1.94-1.55 3.44-2.08 1.5-.51 2.97-.6 3.99-.49 1.03.11 1.63.35 1.61.4ZM558.75 270.84s-.91-.1-2.25-.69c-1.33-.58-3.07-1.69-4.6-3.33-1.52-1.65-2.48-3.47-2.96-4.85-.49-1.38-.56-2.29-.51-2.29.08-.02.28.85.84 2.17.55 1.31 1.53 3.04 3 4.64 1.48 1.59 3.12 2.7 4.39 3.35 1.27.66 2.12.92 2.09 1.01ZM628.38 223.97c.1.1-1.59 1.93-3.76 4.11-2.18 2.17-4.02 3.85-4.11 3.76-.1-.1 1.59-1.93 3.76-4.11 2.17-2.17 4.02-3.85 4.11-3.76Z" fill="#fff"/>
    </g>
    <g fill="#963e63" stroke-width="0">
      <path d="M390.11 190.87a5.753 5.753 0 0 1-8.12.39l-8.77-7.97 7.73-8.51 8.77 7.97a5.753 5.753 0 0 1 .39 8.12Z"/>
      <path d="M390.11 190.87s.37-.43.81-1.34c.43-.89.83-2.42.27-4.17-.26-.87-.81-1.74-1.59-2.47-.83-.74-1.71-1.53-2.65-2.37-1.88-1.69-3.95-3.57-6.17-5.56l.34-.02c-1.24 1.36-2.53 2.79-3.86 4.26-1.33 1.46-2.63 2.89-3.87 4.25l-.02-.34c2.2 2.01 4.26 3.9 6.13 5.61.92.85 1.8 1.66 2.61 2.41.8.72 1.72 1.17 2.61 1.35 1.8.39 3.28-.16 4.13-.67.86-.53 1.22-.97 1.26-.94 0 0-.31.49-1.17 1.08-.84.57-2.37 1.2-4.28.83-.94-.17-1.93-.63-2.79-1.38-.83-.74-1.71-1.53-2.65-2.37-1.88-1.69-3.95-3.57-6.17-5.56l-.18-.16.16-.18c1.24-1.37 2.53-2.79 3.86-4.26 1.33-1.46 2.63-2.89 3.87-4.25l.16-.18.18.16c2.2 2.01 4.26 3.9 6.12 5.61.92.85 1.8 1.66 2.61 2.41.83.79 1.39 1.73 1.64 2.65.55 1.86.06 3.45-.42 4.34-.5.91-.96 1.27-.96 1.27Z"/>
    </g>
    <path d="m345.75 142.83-15.14-12.52a2.791 2.791 0 1 1 3.56-4.3l15.14 12.52-3.56 4.3ZM331.53 161.11l-15.14-12.52a2.791 2.791 0 1 1 3.56-4.3l15.14 12.52-3.56 4.3Z" fill="#e8505b" stroke-width="0"/>
    <path d="m345.75 142.83-15.14-12.52a2.791 2.791 0 1 1 3.56-4.3l15.14 12.52-3.56 4.3ZM331.53 161.11l-15.14-12.52a2.791 2.791 0 1 1 3.56-4.3l15.14 12.52-3.56 4.3Z" fill="#fff" stroke-width="0" opacity=".6"/>
    <path d="M345.75 142.83s.08-.13.23-.33c.18-.24.41-.53.68-.88.63-.79 1.48-1.86 2.53-3.19l.02.21c-1.9-1.55-4.32-3.52-7.11-5.79-1.4-1.15-2.89-2.38-4.45-3.66-.78-.64-1.58-1.3-2.39-1.97-.41-.34-.82-.67-1.23-1.01-.38-.31-.84-.52-1.34-.58a2.55 2.55 0 0 0-2.24.87c-.54.62-.74 1.5-.54 2.28.09.39.28.75.54 1.04.25.29.6.54.92.81.64.53 1.27 1.05 1.88 1.56 2.43 2.04 4.62 3.89 6.48 5.45 1.81 1.54 3.3 2.81 4.39 3.74.49.42.89.77 1.2 1.04.28.24.42.38.42.4s-.14-.09-.42-.3c-.32-.25-.72-.56-1.21-.95-1.11-.89-2.62-2.1-4.47-3.59-1.91-1.55-4.16-3.38-6.65-5.41-.63-.51-1.27-1.04-1.92-1.58-.32-.28-.67-.51-.99-.87-.31-.35-.53-.78-.64-1.24-.24-.92 0-1.97.64-2.71.63-.75 1.67-1.17 2.67-1.04.59.07 1.15.32 1.59.69l1.23 1.02c.81.67 1.6 1.33 2.38 1.98 1.55 1.29 3.03 2.53 4.43 3.69l7.02 5.9.12.1-.1.11c-1.13 1.31-2.04 2.37-2.71 3.15-.29.32-.52.59-.71.8-.16.18-.24.26-.25.25ZM331.53 161.11s.08-.13.23-.33c.18-.24.41-.53.68-.88.63-.79 1.48-1.86 2.53-3.19l.02.21c-1.9-1.55-4.32-3.52-7.11-5.79-1.4-1.15-2.89-2.38-4.45-3.66-.78-.64-1.58-1.3-2.39-1.97-.41-.33-.82-.67-1.23-1.01-.38-.31-.84-.52-1.34-.58a2.55 2.55 0 0 0-2.24.87c-.54.62-.74 1.5-.54 2.28.09.39.28.75.54 1.04.25.29.6.54.92.81.64.53 1.27 1.05 1.88 1.56 2.43 2.04 4.62 3.89 6.48 5.45 1.81 1.54 3.3 2.81 4.39 3.74.49.42.89.77 1.2 1.04.28.24.42.38.42.4 0 .02-.14-.09-.42-.3-.32-.25-.72-.56-1.21-.95-1.11-.89-2.62-2.1-4.47-3.59-1.91-1.55-4.16-3.38-6.65-5.41-.63-.51-1.27-1.04-1.92-1.58-.32-.28-.67-.51-.99-.87-.31-.35-.53-.78-.64-1.24-.24-.92 0-1.97.64-2.71.63-.75 1.67-1.17 2.67-1.04.59.07 1.15.32 1.59.69l1.23 1.02c.81.67 1.6 1.33 2.38 1.98 1.55 1.29 3.03 2.53 4.43 3.69l7.02 5.9.12.1-.1.11c-1.13 1.31-2.04 2.37-2.71 3.15-.29.32-.52.59-.71.8-.16.18-.24.26-.25.25Z" fill="#263238" stroke-width="0"/>
    <g fill="#963e63" stroke-width="0">
      <path d="m380.15 158.66.4-.48a5.355 5.355 0 0 0-.71-7.53 5.344 5.344 0 0 0-6.72-.08l-22.16-18.46-25.35 30.33 22.68 18.03a5.34 5.34 0 0 0 1.09 7.01 5.343 5.343 0 0 0 7.44-.62c6.65 5 16.09 3.85 21.32-2.67l3.64-4.54c5.11-6.37 4.32-15.55-1.62-21Z"/>
      <path d="M380.15 158.66s.07.06.19.17c.13.13.31.29.53.51.24.21.51.51.81.88.15.18.32.38.5.6.16.23.32.47.5.73.7 1.04 1.45 2.42 1.95 4.17.5 1.74.82 3.86.53 6.18-.29 2.31-1.09 4.86-2.75 7.15-.81 1.15-1.75 2.24-2.68 3.43-.94 1.16-1.86 2.44-3.06 3.54-2.35 2.24-5.64 3.79-9.26 4.1-3.61.33-7.54-.66-10.73-3.06l.3-.03a5.569 5.569 0 0 1-3.64 1.89c-1.43.16-2.96-.28-4.11-1.24h-.02.02a5.582 5.582 0 0 1-1.94-3.35c-.24-1.33.04-2.79.8-3.97l.05.32c-5.55-4.41-11.46-9.11-17.55-13.95-1.72-1.37-3.44-2.73-5.13-4.08l-.2-.16.16-.19c9.23-11.03 17.87-21.34 25.38-30.31l.14-.16.16.14c8.82 7.38 16.35 13.69 22.11 18.51h-.18a5.455 5.455 0 0 1 3.49-1.16c1.18.01 2.26.44 3.08 1.03 1.69 1.22 2.28 3.09 2.25 4.47a5.277 5.277 0 0 1-.99 3.01c-.22.29-.39.5-.52.63-.12.14-.19.21-.2.21-.03 0 .24-.3.65-.88a5.4 5.4 0 0 0 .9-2.97c0-1.35-.59-3.14-2.23-4.3-.8-.56-1.83-.96-2.96-.96-1.12-.01-2.33.35-3.31 1.13l-.09.07-.09-.07c-5.79-4.8-13.35-11.06-22.21-18.4l.3-.03c-7.49 8.98-16.11 19.31-25.33 30.35l-.04-.35c1.69 1.35 3.4 2.71 5.13 4.08 6.09 4.85 12 9.55 17.54 13.96l.17.14-.12.18c-.7 1.08-.95 2.41-.74 3.63.2 1.23.87 2.33 1.77 3.07h.02-.02c1.05.88 2.46 1.29 3.77 1.15a5.17 5.17 0 0 0 3.35-1.73l.14-.16.17.13c3.09 2.34 6.91 3.32 10.42 3.01 3.53-.29 6.74-1.79 9.05-3.96 1.18-1.06 2.09-2.32 3.04-3.48.92-1.18 1.89-2.28 2.69-3.4 1.65-2.23 2.44-4.72 2.75-6.99.3-2.29.01-4.37-.46-6.09-.47-1.74-1.2-3.11-1.87-4.15-.17-.26-.33-.5-.48-.74-.17-.21-.33-.41-.48-.6-.29-.38-.55-.68-.79-.92-.21-.23-.38-.4-.5-.54-.11-.12-.16-.18-.16-.18Z"/>
    </g>
    <path fill="#e0e0e0" stroke-width="0" d="m339.152 146.337 15.636 12.93-2.53 3.06-15.636-12.93z"/>
    <path d="M380.15 158.66s-.27.44-.83 1.19c-.56.74-1.39 1.81-2.43 3.11-2.08 2.61-5.01 6.16-8.28 10.04-3.25 3.85-6.18 7.34-8.38 9.95-1.03 1.22-1.89 2.23-2.55 3.01-.61.71-.96 1.09-.98 1.07-.03-.02.27-.44.83-1.19.56-.74 1.39-1.81 2.43-3.11 2.08-2.61 5.01-6.16 8.28-10.05 3.25-3.85 6.18-7.34 8.38-9.95 1.03-1.22 1.89-2.23 2.55-3.01.61-.71.96-1.09.98-1.07ZM373.12 150.57s-.3.46-.91 1.24c-.61.78-1.5 1.9-2.62 3.27-2.24 2.74-5.38 6.48-8.88 10.58-3.48 4.06-6.64 7.74-8.99 10.49-1.11 1.29-2.04 2.35-2.74 3.16-.65.74-1.03 1.14-1.05 1.12s.3-.46.91-1.24c.61-.78 1.5-1.9 2.62-3.27 2.24-2.74 5.38-6.48 8.88-10.58 3.48-4.06 6.63-7.74 8.99-10.49 1.11-1.29 2.04-2.35 2.74-3.16.65-.74 1.03-1.14 1.05-1.12Z" fill="#263238" stroke-width="0"/>
  </g>
  <g data-name="Character 1">
    <g stroke-width="0">
      <path d="M273.5 70.17c-.14.34-11.17 8.71-11.17 8.71l-.21 7.12 5.7.8 8.1-4.61 5.48-.28s3.35 1.78 3.96 1.97c1.49.47 2.25-.94 2.25-.94l-5-3.64s5.55 3.09 6.08 2.68c.53-.41.77-1.8-.54-2.66 0 0 1.73.91 2.81.17 1.08-.73.7-1.6.7-1.6l-7.31-6.57c-.94-.84-2.15-1.3-3.41-1.28l-7.45.12Z" fill="#b78876"/>
      <path d="M274.39 73.26s0 .3-.08.84c-.1.62-.22 1.4-.37 2.34l-.15-.17c1.18-.08 2.6-.17 4.21-.28.82-.04 1.77-.08 2.68.36.46.23.84.6 1.09 1.08.25.46.34 1.09.07 1.63l-.03.06-.06.04c-1.33.79-2.96.61-4.45.71-1.18.05-2.24.43-3.1 1.13-.88.66-1.58 1.5-2.31 2.25-.72.75-1.46 1.47-2.3 1.94-.83.49-1.73.7-2.54.71-1.63 0-2.86-.48-3.68-.78-.82-.32-1.26-.54-1.25-.57.01-.03.48.12 1.31.39.83.24 2.06.66 3.6.61a5.1 5.1 0 0 0 2.35-.71c.77-.45 1.47-1.14 2.17-1.9.71-.75 1.42-1.6 2.35-2.32.9-.75 2.14-1.19 3.36-1.24 1.56-.09 3.09.05 4.24-.63l-.09.1c.38-.77-.22-1.74-.94-2.1-.77-.39-1.65-.38-2.46-.35-1.61.06-3.03.11-4.21.16h-.18l.04-.17c.2-.93.36-1.7.5-2.32.12-.53.2-.82.23-.81Z" fill="#aa6550"/>
      <path d="M288.56 79.49s-.82-.25-1.88-1.1c-1.07-.83-2.26-2.29-3.86-3.45-.4-.28-.81-.48-1.25-.52-.44-.05-.91-.02-1.35-.03-.83 0-1.62 0-2.34-.01-1.33-.02-2.16-.07-2.16-.14s.82-.14 2.16-.21c.73-.03 1.51-.06 2.34-.09.44 0 .9-.05 1.42 0 .53.05 1.04.29 1.47.6 1.7 1.24 2.83 2.72 3.81 3.59.97.89 1.69 1.29 1.65 1.37Z" fill="#aa6550"/>
    </g>
    <path d="m289.07 291.17-.27 17.49s17.69 6.15 17.96 9.39l-33.94.69-.7-27.27 16.95-.3Z" fill="#963e63" stroke-width="0"/>
    <path d="M278.28 307.4c-.65.19-1.09.94-.93 1.6.17.66.92 1.11 1.58.93.66-.18 1.21-1.06.97-1.7-.24-.64-1.16-1.12-1.75-.79M272.82 318.74l.04-2.75 32.53.36s1.52.63 1.38 1.69l-33.94.69Z" fill="#fff" stroke-width="0" opacity=".6"/>
    <path d="M289.35 308.48c0 .17-.83.26-1.63.81-.82.53-1.22 1.25-1.38 1.19-.15-.03.07-1.02 1.06-1.67.98-.66 1.99-.48 1.95-.33ZM292.94 309.88c.04.16-.67.46-1.22 1.17-.57.7-.7 1.46-.86 1.45-.16.03-.29-.94.41-1.81.69-.88 1.66-.97 1.67-.81ZM295.05 314.09c-.15.04-.4-.78 0-1.7.4-.92 1.17-1.29 1.25-1.16.1.13-.4.63-.72 1.39-.34.75-.37 1.45-.54 1.47ZM288.97 304.48c-.07.15-.83-.06-1.77.02-.94.06-1.66.39-1.75.25-.1-.12.6-.75 1.7-.83 1.1-.09 1.89.42 1.81.55Z" fill="#263238" stroke-width="0"/>
    <path stroke-width="0" d="m289.01 294.63-.04 3.12-16.68.19-.08-2.81 16.8-.5z" opacity=".3"/>
    <path d="M288.96 300.95c0 .07-.65.18-1.7.03a7.838 7.838 0 0 1-2.78-1.01c-.16-.1-.35-.19-.52-.39-.19-.17-.3-.61-.09-.88.17-.26.47-.38.72-.39.25-.01.45.03.64.08.38.08.74.2 1.06.34.65.28 1.19.64 1.59 1 .8.71 1.08 1.33 1.03 1.36-.07.06-.47-.45-1.28-1.04-.41-.29-.92-.59-1.53-.82-.31-.11-.64-.21-.98-.28-.36-.09-.67-.08-.76.08-.03.06-.04.09.04.19s.23.19.38.28c.3.19.61.35.91.49.6.28 1.17.47 1.66.6.98.25 1.62.28 1.62.37Z" fill="#263238" stroke-width="0"/>
    <path d="M288.75 301.19c-.06.03-.4-.56-.48-1.63-.04-.53 0-1.18.19-1.87.1-.34.23-.69.41-1.04.19-.34.43-.79 1.07-.88.34-.02.62.24.72.46.12.23.14.42.19.62.07.4.07.78.02 1.14a3.96 3.96 0 0 1-.69 1.77c-.65.89-1.33 1.11-1.35 1.05-.06-.08.51-.41 1-1.27.24-.42.45-.98.51-1.61.03-.31.02-.65-.05-.98-.06-.36-.2-.65-.34-.61-.17 0-.45.28-.58.57-.17.31-.3.62-.4.93-.2.62-.28 1.21-.29 1.7-.03 1 .16 1.61.07 1.64Z" fill="#263238" stroke-width="0"/>
    <path d="M227.31 192.27c.83 1.24 37.67 39.46 37.67 39.46s-4.58 17.61-2.93 32.92c1.65 15.3 6.62 39.72 6.62 39.72l26.71-2.13-7.27-83.03-29.16-38.53-31.64 11.58Z" fill="#004e61" stroke-width="0"/>
    <path d="m298.31 271.83 3.28 17.19s18.57 2.44 19.48 5.56l-33.09 7.55-6.21-26.57 16.54-3.73Z" fill="#963e63" stroke-width="0"/>
    <path d="M291.03 289.92c-.6.32-.88 1.14-.58 1.76s1.13.9 1.74.59.97-1.29.61-1.86c-.36-.58-1.36-.86-1.87-.42M287.98 302.13l-.52-2.7 31.92-6.23s1.62.3 1.69 1.38l-33.09 7.55Z" fill="#fff" stroke-width="0" opacity=".6"/>
    <path d="M302.08 288.73c.03.16-.76.42-1.44 1.12-.69.68-.94 1.48-1.11 1.45-.16 0-.14-1.02.7-1.85.83-.84 1.85-.87 1.85-.72ZM305.88 289.37c.07.15-.56.58-.96 1.39-.42.8-.39 1.57-.55 1.6-.15.06-.47-.86.03-1.86s1.43-1.29 1.47-1.13ZM308.8 293.07c-.14.07-.55-.69-.34-1.67.21-.98.89-1.5.99-1.39.12.11-.26.7-.42 1.51-.18.8-.07 1.49-.23 1.55ZM300.9 284.89c-.03.16-.83.11-1.73.38-.9.25-1.55.72-1.66.6-.12-.1.44-.85 1.5-1.16 1.06-.31 1.94.03 1.89.17Z" fill="#263238" stroke-width="0"/>
    <path stroke-width="0" d="m298.95 275.24.59 3.06-16.3 3.56-.64-2.73 16.35-3.89z" opacity=".3"/>
    <path d="M300.18 281.44c.02.07-.6.31-1.66.37-.53.03-1.16 0-1.86-.14-.35-.07-.7-.16-1.07-.29-.17-.06-.38-.12-.59-.28-.22-.13-.42-.53-.27-.84.11-.29.39-.47.62-.53.24-.06.45-.06.64-.06a6.11 6.11 0 0 1 2.87.77c.93.54 1.33 1.08 1.28 1.12-.06.07-.55-.35-1.47-.76-.46-.2-1.02-.39-1.67-.5-.32-.05-.66-.08-1.02-.08-.37-.01-.67.05-.72.23-.02.07-.02.09.08.18.1.08.26.14.43.2.34.12.67.22.99.3.64.15 1.24.22 1.74.25 1.01.05 1.64-.05 1.66.04Z" fill="#263238" stroke-width="0"/>
    <path d="M300.02 281.72c-.05.04-.5-.47-.8-1.5a5.36 5.36 0 0 1-.19-1.87c.03-.36.09-.73.19-1.1.12-.37.26-.86.87-1.08.32-.09.66.11.8.3.16.2.23.39.31.57.15.37.23.75.26 1.12.06.73-.1 1.38-.32 1.87-.45 1.01-1.08 1.35-1.11 1.3-.07-.07.42-.51.73-1.45.15-.46.25-1.05.17-1.68-.04-.31-.12-.64-.25-.95-.13-.34-.33-.59-.45-.53-.17.03-.38.36-.46.68-.1.34-.17.67-.21.99-.07.65-.03 1.24.06 1.73.18.98.49 1.55.4 1.59Z" fill="#263238" stroke-width="0"/>
    <g stroke-width="0">
      <path d="M161.41 166.11s-2.46 15.82 7.11 26.16 19.91 14.89 38.11 14.06c18.2-.83 57.49.1 57.49.1s1.66 20.97 6.21 38.17c4.55 17.2 13.63 42.96 13.63 42.96l17.8-1.7s-4.81-93.57-6.05-101.84c-1.24-8.27-15.04-12.46-22.49-14.95-7.44-2.48-50.16-11.05-50.16-11.05l-38.77-5.44-22.88 13.53Z" fill="#004e61"/>
      <path d="M301.76 285.85s-.11.02-.31.04c-.23.02-.54.04-.93.08-.84.06-2.05.15-3.61.26-3.18.21-7.8.51-13.64.9h-.12l-.04-.11c-2.39-7.66-5.5-17.61-9.08-29.1-1.79-5.75-3.69-11.88-5.69-18.3-.99-3.2-2.07-6.5-2.81-9.93a66.98 66.98 0 0 1-1.49-10.6c-.23-4.28-.12-8.52.67-12.5l.23.3c-10.85-.22-21.07-.34-30.29-.36-4.61 0-8.97.01-13.04.07-4.07.04-7.84.21-11.28.21-6.88.01-12.4-.35-16.18-.68-1.89-.16-3.36-.32-4.34-.44-.48-.06-.85-.11-1.12-.14-.25-.03-.38-.06-.38-.06s.13 0 .38.02c.27.02.65.06 1.13.1 1.01.08 2.47.2 4.35.35 3.79.27 9.3.58 16.17.53 3.43-.02 7.21-.21 11.28-.27 4.07-.08 8.44-.11 13.05-.12 9.23 0 19.45.09 30.3.31h.29l-.06.3c-.76 3.88-.88 8.12-.65 12.36.21 3.59.72 7.12 1.47 10.52.73 3.42 1.79 6.67 2.78 9.89 1.98 6.43 3.88 12.56 5.65 18.32 3.53 11.5 6.59 21.47 8.95 29.15l-.15-.11c5.84-.33 10.46-.58 13.65-.76 1.56-.08 2.78-.14 3.62-.18.39-.02.7-.03.93-.04h.32Z" fill="#46676d"/>
    </g>
    <path d="M273.49 195.64c.1.11-2.11 2.24-4.37 5.26-2.27 3.01-3.7 5.73-3.84 5.66-.06-.03.23-.75.81-1.85.58-1.1 1.48-2.58 2.63-4.1 1.15-1.52 2.31-2.8 3.21-3.67.9-.87 1.51-1.34 1.55-1.3Z" fill="#46676d" stroke-width="0"/>
    <path d="M278.35 197.37c.06.15-3.45 1.07-7.04 3.59-3.62 2.48-5.72 5.43-5.84 5.32-.05-.03.41-.81 1.35-1.92.93-1.11 2.38-2.53 4.21-3.8 1.83-1.26 3.67-2.12 5.04-2.6s2.26-.64 2.28-.58Z" fill="#46676d" stroke-width="0"/>
    <path d="M198.91 71.19c1.3.65 28.62 17.35 29.92 17.35s33.61-11.78 33.61-11.78l6.62 10.21s-28.33 21.82-37.61 22.14c-9.28.33-24.04-7.13-24.04-7.13l-8.5-30.79ZM142.08 80.36s-33.99 34.55-33.62 43.35c.36 8.8 4.65 13.63 7.35 14.77 3.77 1.59 46.33-3.64 46.33-3.64l2.52-16.56c-6.96-1.39-15.87-2.43-25.49-3.35 4.31-4.51 9.1-7.93 14.95-8.93l10.18-11.07s-12.62-16.72-22.22-14.56Z" fill="#429cac" stroke-width="0"/>
    <path d="M140.33 90.7s-1.63-7.46 1.96-10.45c6.04-5.03 11.11-7.27 15.48-9.44 5-2.49 10.29-5.36 10.29-5.36l30.85 5.74s16.46 26.3 16.12 32.78c-.34 6.47-4.46 10.54-4.46 10.54s-2.17 10.08 2.25 21.1c3.68 9.17 10.24 22.42 10.24 22.42s-35.36-5.74-52.14 2.47c-9 4.4-9.8 11.42-9.8 11.42l-1.32-38.52-6.93-23.59-12.56-19.09Z" fill="#429cac" stroke-width="0"/>
    <path d="M163.69 118.06s-.16-.06-.47-.13c-.31-.06-.77-.15-1.37-.24-1.19-.18-2.93-.39-5.08-.64-4.3-.49-10.25-1.09-16.82-1.72-.39-.04-.77-.07-1.13-.11l-.61-.06.48-.38c2.49-1.97 4.83-3.85 7-5.53a17.42 17.42 0 0 1 6.65-2.94c2.03-.42 3.72-.42 4.87-.32.57.06 1.01.11 1.31.18.3.06.45.09.45.11 0 .13-2.55-.54-6.55.36-1.98.45-4.28 1.36-6.46 2.97-2.14 1.71-4.49 3.58-6.96 5.56l-.13-.44c.36.03.74.07 1.13.11 6.58.63 12.52 1.29 16.81 1.87 4.29.56 6.94 1.13 6.87 1.34Z" fill="#263238" stroke-width="0"/>
    <path d="M127.18 115.67s.41-.6 1.38-1.22c.96-.62 2.47-1.26 4.24-1.35 1.77-.09 3.35.39 4.36.91 1.03.52 1.53 1.03 1.5 1.07-.05.07-.62-.33-1.64-.76a9.957 9.957 0 0 0-4.19-.74c-1.67.09-3.13.64-4.09 1.16-.97.52-1.5.98-1.56.92ZM159.49 94.56c-.09.02-.38-1.26-1.13-3.24-.75-1.96-1.99-4.65-4.14-7.04-1.08-1.17-2.29-2.11-3.5-2.77-.31-.15-.61-.3-.9-.45-.3-.14-.6-.22-.89-.33-.57-.24-1.14-.31-1.65-.43-1.03-.16-1.89-.23-2.47-.2-.59 0-.92 0-.93-.04s.32-.09.92-.15c.59-.09 1.47-.08 2.54.04.53.11 1.12.16 1.72.39.3.1.62.18.93.32.31.14.62.29.95.44 1.26.67 2.53 1.63 3.65 2.84 2.21 2.46 3.42 5.24 4.1 7.25.33 1.02.56 1.85.67 2.44.12.59.17.91.13.92ZM209.65 115.49s.41-.46 1.08-1.34c.68-.87 1.57-2.2 2.29-4.03.73-1.82 1.26-4.14 1.18-6.73-.05-2.59-.86-5.4-2.45-7.94-1.57-2.56-3.52-4.7-5.18-6.73-1.68-2.02-3.06-3.98-3.95-5.78-.91-1.79-1.31-3.38-1.45-4.49-.07-.55-.09-.99-.08-1.28 0-.29.02-.45.03-.45.05 0 .05.62.24 1.7s.64 2.62 1.57 4.36c.91 1.74 2.29 3.65 3.99 5.65 1.67 2.01 3.64 4.15 5.25 6.76 1.63 2.59 2.46 5.52 2.48 8.18.06 2.66-.52 5.04-1.31 6.87-.77 1.85-1.73 3.18-2.46 4.02-.35.44-.68.72-.89.93-.21.2-.33.3-.34.29Z" fill="#263238" stroke-width="0"/>
    <path d="M155.9 116.69c-.74-2.21.61-4.9 2.82-5.63 1.19-.39 2.49-.27 3.72-.48.78-.13 1.65-.52 1.81-1.29.2-.97-.81-1.73-1.71-2.12-3.66-1.58-7.94-1.68-11.67-.28 2.09 3.01 3.41 6.01 3.65 9.66M202.66 82.46c-1.6-3.19 4.18 5.77 6.87 8.11s5.53 4.56 7.76 7.35 3.88 5.87 3.58 9.42l-6.42-2.26s.81-5.19-2.02-8.97c-2.83-3.78-9.12-12.38-9.76-13.65ZM138.72 114.74c-1.77-1.93-4.48-2.7-7.08-3-1.58-.18-3.22-.2-4.72.31s-2.87 1.65-3.32 3.17c-.14.46-.17 1 .12 1.38.32.43.96.5 1.47.34.51-.17.93-.52 1.36-.84 3.37-2.49 8.08-3.01 11.91-1.32" stroke-width="0" opacity=".3"/>
    <path d="M149.24 90.15a2.11 2.11 0 1 1-4.22 0 2.11 2.11 0 0 1 4.22 0ZM160.56 76.22a2.11 2.11 0 1 1-4.22 0 2.11 2.11 0 0 1 4.22 0ZM182.63 77.09a2.11 2.11 0 1 1-4.22 0 2.11 2.11 0 0 1 4.22 0ZM199.68 75.77a2.11 2.11 0 1 1-4.22 0 2.11 2.11 0 0 1 4.22 0ZM227.91 100.75a2.11 2.11 0 1 1-4.22 0 2.11 2.11 0 0 1 4.22 0ZM210.68 98.64a2.11 2.11 0 1 1-4.22 0 2.11 2.11 0 0 1 4.22 0ZM214.32 84.63a2.11 2.11 0 1 1-4.22 0 2.11 2.11 0 0 1 4.22 0Z" fill="#263238" stroke-width="0"/>
    <circle cx="237.99" cy="90.36" r="2.11" fill="#263238" stroke-width="0"/>
    <path d="M254.71 92.26a2.11 2.11 0 1 1-4.22 0 2.11 2.11 0 0 1 4.22 0ZM201.87 114.8a2.11 2.11 0 1 1-4.22 0 2.11 2.11 0 0 1 4.22 0ZM209.53 126.76a2.11 2.11 0 1 1-4.22 0 2.11 2.11 0 0 1 4.22 0ZM193.81 134.8a2.11 2.11 0 1 1-4.22 0 2.11 2.11 0 0 1 4.22 0ZM183.62 148.04a2.11 2.11 0 1 1-4.22 0 2.11 2.11 0 0 1 4.22 0ZM208.58 145.8a2.11 2.11 0 1 1-4.22 0 2.11 2.11 0 0 1 4.22 0ZM167.74 157.71a2.11 2.11 0 1 1-4.22 0 2.11 2.11 0 0 1 4.22 0ZM176.52 124.65a2.11 2.11 0 1 1-4.22 0 2.11 2.11 0 0 1 4.22 0ZM169.43 140.03a2.11 2.11 0 1 1-4.22 0 2.11 2.11 0 0 1 4.22 0ZM195.14 93.07a2.11 2.11 0 1 1-4.22 0 2.11 2.11 0 0 1 4.22 0ZM182 109.88a2.11 2.11 0 1 1-4.22 0 2.11 2.11 0 0 1 4.22 0ZM169.43 96.54a2.11 2.11 0 1 1-4.22 0 2.11 2.11 0 0 1 4.22 0ZM117.54 129.13a2.11 2.11 0 1 1-4.22 0 2.11 2.11 0 0 1 4.22 0ZM127.28 102.48a2.11 2.11 0 1 1-4.22 0 2.11 2.11 0 0 1 4.22 0ZM145.99 132.11a2.11 2.11 0 1 1-4.22 0 2.11 2.11 0 0 1 4.22 0ZM158.83 122.27a2.11 2.11 0 1 1-4.22 0 2.11 2.11 0 0 1 4.22 0ZM133.22 119.98a2.11 2.11 0 1 1-4.22 0 2.11 2.11 0 0 1 4.22 0ZM144.17 106.07a2.11 2.11 0 1 1-4.22 0 2.11 2.11 0 0 1 4.22 0Z" fill="#263238" stroke-width="0"/>
    <g stroke-width="0">
      <path d="M105.35 220.12c-.03.06-.78-.23-1.88-.91-1.1-.67-2.54-1.71-4.05-2.97-1.5-1.27-2.78-2.51-3.61-3.5-.84-.98-1.22-1.7-1.17-1.73.06-.04.53.59 1.43 1.49.88.91 2.18 2.1 3.67 3.36 1.49 1.25 2.88 2.32 3.92 3.06 1.03.74 1.72 1.13 1.69 1.2ZM110.58 217.2c0 .05-.9-.04-2.25-.57-1.35-.51-3.09-1.5-4.8-2.88s-3.05-2.85-3.92-3.99c-.87-1.14-1.27-1.94-1.22-1.97.07-.04.57.68 1.49 1.75a31.88 31.88 0 0 0 3.95 3.83c1.68 1.35 3.35 2.36 4.63 2.94 1.27.6 2.13.81 2.11.89Z" fill="#263238"/>
      <path d="M90.62 199.97s-.14-.28-.31-.81c-.18-.53-.38-1.32-.58-2.3-.4-1.96-.69-4.73-.48-7.79.22-3.06.89-5.77 1.57-7.65.33-.94.64-1.69.89-2.19.24-.5.39-.77.42-.76.08.03-.41 1.17-.98 3.06a35.21 35.21 0 0 0-1.41 7.58c-.21 3.01.03 5.74.34 7.7.31 1.96.63 3.15.55 3.17ZM78.18 217.87c0 .06-.9.28-2.41.42-1.5.14-3.61.16-5.9-.17-2.29-.33-4.31-.93-5.71-1.48-1.41-.55-2.22-1.02-2.2-1.07.03-.07.89.28 2.31.74 1.42.46 3.41 1 5.67 1.32 2.25.32 4.32.36 5.81.31 1.49-.05 2.42-.15 2.43-.07ZM216.04 184.73c.05.04-.48.89-1.46 2.18s-2.41 3.01-4.14 4.79c-1.73 1.77-3.41 3.25-4.68 4.26-1.27 1.01-2.1 1.57-2.14 1.52-.04-.06.71-.71 1.91-1.78s2.84-2.58 4.55-4.34c1.71-1.76 3.18-3.43 4.22-4.66 1.04-1.23 1.67-2 1.73-1.96ZM73.41 133.78s-.21-.46-.51-1.33c-.31-.86-.67-2.14-1.05-3.73-.39-1.59-.73-3.51-.98-5.67a56.07 56.07 0 0 1-.31-7.04c.08-2.5.33-4.87.68-7.01.37-2.13.81-4.04 1.28-5.61.46-1.57.89-2.82 1.25-3.67.34-.85.55-1.31.58-1.3.03.01-.11.5-.4 1.36-.3.86-.68 2.12-1.09 3.7-.42 1.57-.82 3.47-1.17 5.59-.32 2.12-.56 4.48-.63 6.95-.06 2.48.06 4.84.26 6.98.23 2.14.53 4.05.87 5.64.33 1.59.64 2.87.89 3.75.24.88.36 1.37.32 1.38ZM79.46 88.9c.12.07-.43 1.26-1.22 2.67s-1.53 2.49-1.65 2.43c-.12-.07.43-1.26 1.22-2.67s1.53-2.49 1.65-2.43Z" fill="#fff"/>
    </g>
    <g stroke-width="0">
      <path d="M200.51 44.8c-1.19 1.9-.17 4.4 1.16 6.21 1.33 1.8 3.04 3.53 3.3 5.75.35 3.05-2.23 5.72-5.04 6.96-.86.38-1.81.71-2.36 1.48-.78 1.08-.46 2.55-.49 3.88-.04 2.27-1.3 4.54-3.33 5.58-2.02 1.04-4.73.68-6.26-1-.9-.99-1.35-2.3-1.62-3.6-1.05-4.95.18-10.42 3.57-14.17 1.69-1.87 3.82-3.27 5.66-4.98 1.84-1.71 3.47-3.9 3.63-6.4M200.18 22.04c-1.39-3.58-5.03-5.79-8.66-7.05-5.22-1.82-11.06-2.23-16.25-.35-7.62 2.76-12.74 9.86-16.68 16.94-1.71 3.08-3.63 6.52-7 7.54-1.8.55-3.73.3-5.6.5-2.89.32-5.63 1.81-7.48 4.04-2.25 2.72-3.4 6.62-6.63 8.05-2.08.92-4.47.53-6.74.6-4.73.15-9.71 3-10.75 7.61-.68 3.01.35 6.38-1.04 9.13-.51 1-1.3 1.84-1.78 2.85-.96 2.03-.4 4.66 1.29 6.13s4.38 1.65 6.25.41c.7-.46 1.3-1.1 2.07-1.42 1.64-.69 3.51.22 4.93 1.28 1.43 1.06 2.84 2.36 4.61 2.56 3.63.4 6.43-3.95 10.07-3.71 2.04.13 3.65 1.66 5.4 2.71 3.06 1.84 4.6.19 7.19-2.26 2.6-2.46 4.03 7.88 10.02 5.18 5.58-2.51.05-12.06 2.1-11.84 2.04.22 7.4-.12 8.54-1.83" fill="#263238"/>
      <path d="M200.87 32.67c1.51-4.03.9-8.79-1.58-12.31-1.87-2.65-4.66-4.55-7.64-5.82-4-1.72-8.57-2.4-12.75-1.18s-7.85 4.57-8.78 8.82c-.42 1.93-.3 4.01-1.14 5.8-.37.78-.92 1.56-.78 2.41.13.78.84 1.36 1.61 1.54.77.18 1.57.03 2.32-.2 2.57-.76 4.8-2.34 6.99-3.89" fill="#263238"/>
      <path d="M186.97 70.39c.46-3.69.63-5.2.63-5.16 0 0 7.93-.41 10.7-10.38 1.38-4.96 2.06-13.27 2.4-20.09.31-6.14-2.88-14.07-9.03-14.12l-19.5 2.64a3.602 3.602 0 0 0-3.61 3.26l-3.05 44.41s8.81 10.42 16.44 9.02c7.63-1.4 5.02-9.57 5.02-9.57Z" fill="#b78876"/>
      <g fill="#263238">
        <path d="M197.45 41.59c-.05.69-.68 1.21-1.41 1.17-.72-.04-1.26-.64-1.21-1.33.05-.69.68-1.22 1.4-1.17.72.04 1.26.64 1.21 1.33ZM198.41 38.86c-.18.15-1.08-.69-2.49-.85-1.4-.18-2.51.43-2.64.24-.07-.08.13-.37.62-.65.48-.27 1.27-.5 2.14-.4.87.1 1.57.51 1.96.89.39.38.5.7.42.77Z"/>
      </g>
      <g fill="#263238">
        <path d="M184.64 40.27c-.05.69-.68 1.21-1.4 1.17-.72-.04-1.26-.64-1.21-1.33.05-.69.68-1.22 1.4-1.17.72.04 1.26.64 1.21 1.33ZM184.61 37.56c-.18.15-1.09-.69-2.49-.85-1.4-.18-2.51.43-2.64.24-.07-.08.13-.37.62-.65.48-.28 1.27-.51 2.14-.4.87.1 1.57.51 1.96.89.39.38.5.7.42.77Z"/>
      </g>
      <path d="M188.51 48.53c0-.08.89-.13 2.32-.15.36 0 .71-.03.8-.27.11-.25 0-.65-.12-1.09-.24-.9-.49-1.85-.75-2.85-1.03-4.05-1.73-7.36-1.57-7.4.16-.04 1.13 3.21 2.16 7.25.25 1 .48 1.95.7 2.86.09.42.27.91.03 1.43-.13.26-.41.42-.65.46-.24.04-.44.02-.62.02-1.43-.08-2.31-.18-2.31-.26Z" fill="#263238"/>
      <path d="M187.6 65.23s-6.88-.33-13.19-5.17c0 0 2.62 7.42 12.9 7.62l.3-2.45ZM189.09 53.69c-.35-.76-1.14-1.31-2.02-1.41-.61-.07-1.28.09-1.75.5-.47.41-.7 1.08-.47 1.62.26.6 1.01.9 1.71.85.7-.04 1.36-.35 1.99-.67.17-.09.35-.18.48-.32s.2-.35.11-.51" fill="#aa6550"/>
      <path d="M185.28 32.47c-.18.37-1.56.03-3.23.04-1.67-.02-3.05.31-3.23-.06-.08-.17.19-.51.77-.82.57-.31 1.46-.56 2.46-.56s1.89.26 2.46.57c.58.31.85.65.77.82ZM198.7 32.69c-.28.29-1.21-.15-2.37-.3-1.15-.19-2.17-.03-2.36-.39-.08-.17.11-.47.57-.73.46-.25 1.19-.42 1.99-.3.79.12 1.45.48 1.82.85.37.37.47.72.34.86Z" fill="#263238"/>
      <path d="M169.51 43.89c.08-.76-.59-2.64-1.32-2.84-1.96-.54-5.57-.78-6.18 4.28-.83 6.92 6.29 6.33 6.32 6.13.03-.15.89-4.95 1.18-7.57Z" fill="#b78876"/>
      <path d="M166.53 48.58s-.13.07-.35.14c-.21.07-.56.09-.9-.09-.7-.36-1.17-1.59-1.06-2.84.06-.63.26-1.22.54-1.69.27-.48.64-.8 1.02-.82.38-.04.61.21.67.42.07.2 0 .34.04.35.02.02.16-.1.14-.39a.772.772 0 0 0-.22-.47.986.986 0 0 0-.65-.26c-.54-.03-1.08.41-1.39.92a4.17 4.17 0 0 0-.65 1.88c-.12 1.4.43 2.79 1.4 3.2.47.19.9.09 1.12-.05.23-.14.29-.3.27-.31Z" fill="#aa6550"/>
      <path d="M192.77 19.55c-.91 3.29-3.77 5.96-7.11 6.64-1.79.36-3.89.31-5.07 1.71-1.2 1.43-.79 3.7-1.92 5.18-1.57 2.05-5.27 1.6-6.52 3.86-.54.99-.43 2.24-.99 3.22-.75 1.3-2.58 1.71-3.96 1.12-1.38-.59-2.32-1.95-2.73-3.39-.42-1.44-.39-2.97-.32-4.47.13-2.95.39-5.96 1.55-8.68 2.42-5.7 11.71-13.02 17.82-12.01M199.73 46.86c1.58-1.87 3.09-3.96 4.67-5.83 1.49-1.76 3.05-3.68 3.24-5.98.16-1.95-.7-3.83-1.69-5.51-1.87-3.21-4.24-6.1-6.59-8.97-.57-.7-1.15-1.4-1.91-1.9-.62-.41-1.35-.65-2.09-.71-.61-.04-1.25.05-1.74.42s-.75 1.06-.51 1.62c.23.52.81.77 1.32 1.04 2.88 1.48 4.72 4.48 5.55 7.61s.59 6.16.52 9.39c-.06 2.53-.4 5.22-.66 7.55" fill="#263238"/>
      <path d="M183.48 12.94c-7.21-.97-14.84 2.24-19.19 8.08-2.42 3.24-4.19 7.47-8 8.82-3.12 1.11-6.6-.13-9.86.44-2.92.51-5.53 2.58-6.69 5.31-.93 2.18-1.04 4.8-2.67 6.52-2.14 2.27-6.04 2.02-8.23 4.25-1.81 1.84-1.86 4.8-1.14 7.27.3 1.03.77 2.1 1.71 2.62.82.45 1.81.37 2.73.21 3.16-.57 6.08-2.02 8.91-3.53 6.37-3.42 12.51-7.27 18.64-11.11 2.84-1.78 5.73-3.6 8-6.07 3-3.26 4.76-7.43 6.86-11.34 2.1-3.9 4.79-7.78 8.81-9.63" fill="#263238"/>
      <path d="M114.81 78.88s-.1-.02-.28-.09c-.19-.05-.44-.18-.77-.38-.62-.41-1.45-1.26-1.89-2.65-.42-1.35-.5-3.3.61-5.07 1.05-1.78 3.03-3.24 5.43-4.13 2.41-.91 5.21-1.21 8.12-1.78 1.45-.29 2.94-.68 4.36-1.34 1.41-.66 2.79-1.57 3.77-2.88 1-1.3 1.48-2.96 1.73-4.67.28-1.72.37-3.53.9-5.32 1.03-3.59 3.79-6.73 7.36-8.39 1.78-.85 3.75-1.24 5.66-1.22 1.91.02 3.76.33 5.56.46 1.79.13 3.59.04 5.2-.55.8-.3 1.54-.72 2.14-1.28.61-.56 1.08-1.25 1.48-1.97.79-1.45 1.3-3.02 2.17-4.4.86-1.39 2.05-2.47 3.31-3.3 2.57-1.63 5.31-2.38 7.75-3.03 2.47-.61 4.68-1.18 6.53-1.96 1.86-.74 3.34-1.66 4.42-2.57 1.06-.93 1.72-1.82 2.08-2.47.37-.64.51-1.01.54-1 0 0-.11.38-.45 1.05-.33.67-.98 1.6-2.04 2.56-1.07.94-2.57 1.9-4.44 2.68-1.86.8-4.1 1.41-6.55 2.04-2.43.67-5.13 1.44-7.62 3.04-1.21.82-2.35 1.86-3.17 3.19-.83 1.32-1.33 2.89-2.14 4.39-.41.75-.9 1.48-1.56 2.09-.65.61-1.45 1.07-2.29 1.39-1.7.63-3.57.72-5.4.59-1.84-.12-3.67-.44-5.53-.45-1.85-.01-3.73.35-5.45 1.18-3.44 1.6-6.11 4.64-7.11 8.08-.52 1.72-.62 3.51-.9 5.26-.26 1.74-.76 3.5-1.83 4.87-1.05 1.38-2.49 2.33-3.95 3-1.47.67-2.99 1.07-4.46 1.35-2.94.56-5.72.84-8.08 1.71-2.35.86-4.28 2.25-5.31 3.95-1.09 1.68-1.04 3.55-.66 4.87.4 1.35 1.17 2.19 1.76 2.62.61.42 1 .52.99.55Z" fill="#455a64"/>
      <path d="M115.44 57.64s.17-.3.7-.69c.52-.38 1.44-.78 2.68-.83 1.23-.07 2.74.24 4.38.74.83.23 1.72.49 2.67.61s1.99.1 2.97-.3c.98-.39 1.86-1.12 2.56-2.04.72-.92 1.23-2.03 1.66-3.22.43-1.19.76-2.47 1.22-3.77.45-1.29 1.02-2.6 1.72-3.87 1.39-2.52 3.43-5.02 6.36-6.39 1.45-.7 3.11-.96 4.73-.99 1.63-.05 3.27.06 4.89-.1 1.62-.13 3.19-.66 4.34-1.72 1.16-1.05 1.9-2.48 2.6-3.86.7-1.39 1.38-2.81 2.38-3.99.99-1.19 2.24-2.08 3.53-2.74 2.62-1.32 5.39-1.79 7.93-2.04 2.55-.25 4.93-.34 7.07-.65 2.14-.3 4.04-.82 5.58-1.57 1.55-.73 2.73-1.65 3.56-2.51.84-.87 1.32-1.68 1.6-2.26.28-.57.38-.89.41-.88 0 0-.06.33-.32.93-.25.59-.71 1.44-1.55 2.34-.82.91-2.02 1.86-3.58 2.63-1.56.79-3.49 1.35-5.65 1.67-2.16.34-4.55.45-7.08.71-2.52.27-5.24.75-7.77 2.04-1.25.65-2.45 1.51-3.38 2.64-.95 1.12-1.61 2.51-2.31 3.91-.7 1.39-1.45 2.87-2.7 4.01-1.24 1.15-2.95 1.72-4.62 1.85-1.68.16-3.33.05-4.92.1-1.6.03-3.16.28-4.54.94-2.79 1.3-4.79 3.71-6.16 6.17-.7 1.24-1.25 2.52-1.71 3.79-.46 1.27-.8 2.55-1.24 3.76-.83 2.41-2.33 4.62-4.47 5.45-1.05.41-2.16.42-3.14.28-.99-.14-1.88-.41-2.71-.66-1.64-.53-3.09-.86-4.3-.82-1.21.01-2.1.37-2.63.72-.53.35-.73.63-.75.61ZM145.86 78.65s.16-.04.43-.19c.26-.15.6-.47.77-1.02.19-.54.16-1.28-.31-1.95-.45-.67-1.24-1.23-2.18-1.67-.93-.46-2.08-.85-3.03-1.76-.93-.91-1.54-2.24-1.68-3.68a7.59 7.59 0 0 1 .9-4.37c.76-1.38 1.95-2.54 3.33-3.43 2.79-1.81 5.93-2.4 8.66-2.92 2.75-.5 5.22-.98 7.16-1.79 1.95-.78 3.35-1.78 4.19-2.6.85-.81 1.19-1.38 1.23-1.35.01 0-.07.15-.23.42-.17.26-.45.63-.86 1.07-.81.88-2.22 1.95-4.19 2.79-1.96.86-4.47 1.39-7.21 1.91-2.73.54-5.79 1.14-8.48 2.88-1.33.86-2.45 1.97-3.18 3.26a7.173 7.173 0 0 0-.87 4.1c.12 1.35.67 2.58 1.51 3.43.85.84 1.96 1.25 2.9 1.74.96.47 1.78 1.08 2.25 1.83.5.74.5 1.6.26 2.16-.22.58-.62.92-.91 1.04-.3.13-.47.1-.47.1Z" fill="#455a64"/>
    </g>
    <g stroke-width="0">
      <path d="M158.43 130.88s-1.15-1.25-.77-2.41c.39-1.15 1.06-2.02 1.35-1.92.29.1.19-6.26 1.35-6.74 1.15-.48 2.5-.77 2.5-.77s1.35-3.46 2.12-3.37 9.34 1.64 9.34 1.64 6.74 7.22 6.35 7.89c-.38.67-.77 1.44-1.83 1.06s-2.07-1.06-2.07-1.06l3.58 3.93s-.69 3.01-3.63.88l1.44 1.83s-.87 3.75-5.1.58l-4.33-2.6h-2.79l6.35 3.87s.67 1.91-1.25 1.91-6.76-2.56-6.76-2.56-2.88 1.7-3.84 1.7-1.23-1.07-1.23-1.07l-.77-2.79Z" fill="#b78876"/>
      <path d="M176.87 130.21c-.06.05-.57-.5-1.49-1.28-.9-.79-2.28-1.81-3.52-3.19-.61-.67-1.38-.94-2.16-.97-.77-.04-1.48.08-2.09.13-1.22.15-2-.03-1.98-.09.01-.07.75-.02 1.94-.25.6-.09 1.31-.25 2.15-.24.42.01.87.08 1.31.25.45.16.84.49 1.18.82 1.23 1.38 2.54 2.41 3.41 3.29.88.86 1.31 1.49 1.26 1.53ZM180.34 129.13c-.05.05-.7-.63-1.75-1.71-1.05-1.09-2.49-2.59-4.13-4.2-.83-.79-1.6-1.6-2.35-2.19-.76-.59-1.62-.79-2.35-.85-1.48-.1-2.42.05-2.43-.05 0-.03.22-.09.64-.17.42-.07 1.03-.16 1.81-.14.76.02 1.74.2 2.6.83.84.63 1.59 1.41 2.43 2.21 1.65 1.62 3.07 3.16 4.05 4.31.98 1.15 1.54 1.91 1.49 1.95Z" fill="#aa6550"/>
    </g>
    <path d="M189.41 52.65c-.05.28-1.14.29-2.4.58-1.26.27-2.26.72-2.42.49-.17-.2.72-1.13 2.21-1.45 1.48-.33 2.68.13 2.61.38Z" fill="#263238" stroke-width="0"/>
    <g stroke-width="0">
      <g fill="#963e63">
        <path d="m257.19 129.97-8.89-45.69a3.427 3.427 0 0 0-4.02-2.71 3.427 3.427 0 0 0-2.71 4.02l.4 2.08-18.39 4.52a12.282 12.282 0 0 0-8.59 7.66l-11.09 2.73a7.178 7.178 0 0 0-5.25 8.67l1 4.05-10.86 2.67c-3.01.74-4.86 3.79-4.11 6.8.74 3.01 3.79 4.86 6.8 4.11l10.86-2.67.77 3.13a7.178 7.178 0 0 0 8.67 5.25l11.29-2.78-.02-.08c2.91 2.47 6.91 3.57 10.9 2.59l16.32-4.02.19.98a3.427 3.427 0 0 0 4.02 2.71 3.427 3.427 0 0 0 2.71-4.02Z"/>
        <path d="M257.19 129.97s.09.25.09.77c-.01.5-.13 1.32-.78 2.12-.62.78-1.88 1.5-3.38 1.2a3.57 3.57 0 0 1-2.03-1.22c-.27-.33-.5-.73-.63-1.17-.13-.45-.19-.89-.29-1.36l.13.09c-3.33.83-7.36 1.84-11.98 2.99-1.16.29-2.35.59-3.58.89-1.22.32-2.55.58-3.91.55-2.72-.02-5.59-1.02-7.89-2.96l.31-.19s.01.05.02.08l.05.18-.18.04c-3.81.92-7.8 1.98-12.1 2.95-2.23.3-4.64-.49-6.27-2.2-.83-.84-1.43-1.9-1.77-3.05-.31-1.14-.57-2.27-.86-3.43l.27.16c-2.98.74-6.03 1.49-9.15 2.26-.79.18-1.54.42-2.39.54-.84.1-1.71.02-2.52-.24-1.64-.51-3.02-1.81-3.64-3.44-.66-1.62-.5-3.55.4-5.08.87-1.55 2.57-2.61 4.29-2.89 3.36-.83 6.77-1.67 10.22-2.52l-.18.3c-.2-.83-.42-1.69-.63-2.57-.2-.87-.49-1.76-.55-2.73-.14-1.9.49-3.82 1.69-5.26.6-.72 1.33-1.33 2.15-1.77.81-.46 1.74-.7 2.6-.9 3.48-.85 6.9-1.7 10.27-2.52l-.17.15c.98-2.64 2.85-4.88 5.18-6.31 1.17-.7 2.43-1.23 3.73-1.53 1.28-.31 2.54-.62 3.8-.93 5.02-1.23 9.84-2.41 14.44-3.54l-.16.25c-.11-.54-.21-1.09-.31-1.62-.12-.52-.21-1.13-.11-1.7.17-1.15.92-2.16 1.92-2.68 1-.52 2.23-.54 3.22-.05 1 .46 1.74 1.4 1.98 2.45.77 3.98 1.5 7.76 2.19 11.31l3.53 18.43c.97 5.11 1.73 9.13 2.25 11.9.25 1.36.44 2.42.58 3.15.06.34.11.61.14.81.03.18.04.27.04.28s-.03-.09-.07-.27c-.04-.2-.1-.46-.17-.8-.15-.73-.36-1.78-.64-3.13-.55-2.76-1.35-6.78-2.37-11.88-1.01-5.12-2.23-11.32-3.63-18.41-.7-3.55-1.44-7.32-2.22-11.29-.21-.93-.87-1.76-1.76-2.17-.88-.43-1.97-.4-2.85.06-.89.46-1.55 1.36-1.69 2.37-.09.51-.01 1 .11 1.55.11.54.21 1.08.32 1.62l.04.2-.2.05c-4.59 1.14-9.42 2.33-14.43 3.57-2.49.69-5.17.99-7.39 2.42a12.186 12.186 0 0 0-4.97 6.08l-.04.12-.12.03c-3.36.83-6.79 1.67-10.26 2.53-.88.21-1.71.42-2.48.85-.76.41-1.45.98-2.01 1.65-1.12 1.34-1.72 3.14-1.58 4.91.06.88.34 1.76.54 2.65.22.88.43 1.74.63 2.57l.06.24-.24.06c-3.45.85-6.86 1.69-10.22 2.51-1.69.29-3.16 1.23-3.99 2.66-.83 1.41-.97 3.17-.37 4.67.57 1.5 1.84 2.69 3.35 3.16a5.5 5.5 0 0 0 2.31.23c.76-.11 1.56-.35 2.34-.53 3.12-.77 6.18-1.51 9.16-2.24l.22-.05.05.22c.29 1.15.55 2.31.85 3.41.32 1.08.88 2.09 1.65 2.87 1.53 1.62 3.8 2.37 5.9 2.09 4.21-.94 8.27-1.99 12.06-2.9l-.14.23s-.01-.06-.02-.08l-.14-.57.44.38c2.22 1.9 5 2.88 7.65 2.91 1.33.04 2.6-.2 3.83-.52a9895.45 9895.45 0 0 0 15.59-3.78l.11-.03.02.11c.09.46.16.93.28 1.34.13.41.33.79.59 1.11.51.64 1.22 1.03 1.91 1.18 1.42.3 2.64-.37 3.26-1.11.64-.76.78-1.55.81-2.05.02-.51-.05-.77-.03-.77Z"/>
        <path d="M250.68 130.22c-.13.03-2.28-9.46-4.79-21.18-2.51-11.73-4.44-21.26-4.31-21.29.13-.03 2.28 9.46 4.79 21.19 2.51 11.73 4.44 21.26 4.31 21.29ZM223.06 131.73c-.13.03-2.04-7.09-4.26-15.91-2.22-8.82-3.91-16-3.78-16.03.13-.03 2.04 7.09 4.26 15.91 2.22 8.82 3.91 16 3.78 16.03ZM202.35 126.21c-.15.05-.9-2.37-1.58-5.4-.68-3.03-1.21-5.48-1.1-5.51.15-.05.9 2.37 1.58 5.4.68 3.03 1.21 5.48 1.1 5.51ZM212.21 102.48c0 .07-1.07.24-2.79.59-.86.18-1.88.41-3 .72-1.11.31-2.32.71-3.46 1.37-1.13.65-2.15 1.48-2.43 2.55-.31 1.06-.16 2.12-.06 2.98.22 1.74.51 2.79.44 2.81-.06.02-.47-1.01-.78-2.76-.14-.87-.34-1.95-.03-3.16.16-.6.52-1.19.99-1.65.47-.47 1.03-.85 1.63-1.2 1.2-.69 2.45-1.08 3.59-1.38 1.14-.29 2.17-.48 3.05-.62 1.75-.27 2.85-.31 2.85-.25ZM238.52 90.36s-.33.13-.95.29c-.62.15-1.51.36-2.62.6-2.34.49-5.34 1.12-8.66 1.82-1.67.39-3.23.88-4.53 1.58-1.3.69-2.3 1.59-2.99 2.46-1.39 1.78-1.39 3.29-1.49 3.25-.02 0-.05-.36.08-.99s.46-1.53 1.14-2.47c.68-.94 1.7-1.91 3.05-2.65 1.33-.75 2.94-1.27 4.63-1.67 3.4-.73 6.47-1.27 8.7-1.68 1.12-.2 2.02-.35 2.65-.45.63-.09.98-.13.98-.1ZM197.76 117.79c.03.05-.68.46-1.93.77-1.25.34-3.02.48-4.89.88-.93.21-1.8.49-2.51.88-.72.38-1.29.85-1.71 1.31-.84.92-1 1.72-1.08 1.69-.05 0 0-.87.82-1.92.41-.52 1-1.05 1.76-1.48.76-.43 1.66-.75 2.62-.96 1.93-.41 3.69-.49 4.92-.73 1.24-.22 1.98-.5 2-.43Z"/>
      </g>
      <path d="M246 82.58c0 .08-.37.07-.89.21-.52.14-1.23.46-1.76 1.08-.53.62-.74 1.37-.79 1.91-.06.54 0 .9-.07.92-.06.02-.25-.31-.28-.92-.04-.6.14-1.49.76-2.22.62-.73 1.47-1.05 2.07-1.1.61-.06.97.07.96.13Z" fill="#fff"/>
    </g>
  </g>
  <g fill="#263238" stroke-width="0" data-name="Lines">
    <path d="M391.7 75.84s-.06.05-.19.12c-.15.08-.34.18-.57.31-.54.28-1.27.67-2.21 1.15-1.96 1-4.75 2.43-8.2 4.19-7 3.53-16.67 8.4-27.52 13.86l-.18.09-.12-.17c-.76-1.08-1.58-2.23-2.4-3.4-1.17-1.66-2.32-3.29-3.42-4.84l.32.07c-10.15 5.87-19.15 11.06-25.65 14.81-3.22 1.83-5.81 3.31-7.64 4.36-.88.49-1.57.87-2.07 1.16-.22.12-.4.21-.54.29-.12.06-.19.09-.19.08 0 0 .05-.05.17-.13.14-.09.31-.2.52-.33.5-.3 1.17-.71 2.03-1.23 1.81-1.07 4.38-2.6 7.57-4.49 6.48-3.79 15.44-9.03 25.57-14.95l.19-.11.13.18c1.09 1.55 2.25 3.18 3.42 4.84.82 1.16 1.64 2.32 2.4 3.4l-.31-.08L380.4 81.3c3.48-1.7 6.29-3.08 8.27-4.05.95-.45 1.7-.81 2.25-1.07.24-.11.43-.2.59-.27.13-.06.2-.08.21-.08ZM384.41 111.96s-.18.07-.54.15c-.41.09-.93.2-1.58.35-1.44.29-3.42.7-5.86 1.19-5.02.98-11.9 2.31-19.61 3.81l-.24.05-.04-.25c-.14-.77-.28-1.59-.43-2.43-.1-.55-.19-1.1-.28-1.6l.28.2c-7.96 1.37-15 3.03-20.05 4.36-2.52.66-4.55 1.23-5.95 1.62-.66.18-1.19.33-1.61.45-.37.1-.57.14-.57.13s.18-.09.54-.22c.41-.14.94-.31 1.59-.53 1.38-.45 3.4-1.07 5.91-1.77 5.03-1.42 12.08-3.14 20.05-4.52l.24-.04.04.24c.09.51.19 1.05.29 1.6.15.83.29 1.65.43 2.43l-.29-.2c7.72-1.44 14.61-2.72 19.64-3.66 2.45-.43 4.44-.79 5.88-1.04.65-.11 1.18-.19 1.6-.26.37-.05.56-.07.56-.06ZM317.36 77.25c.12.06-2.42 5.56-5.69 12.28-3.26 6.72-6.01 12.12-6.13 12.06-.12-.06 2.42-5.56 5.69-12.28 3.26-6.72 6.01-12.12 6.13-12.06ZM347.22 104.21c.04.13-6.29 2.09-14.13 4.38-7.84 2.29-14.23 4.04-14.27 3.91-.04-.13 6.29-2.09 14.13-4.38 7.84-2.29 14.23-4.04 14.27-3.91ZM298.29 60.03s.16.35.41 1.02c.26.74.6 1.71 1.01 2.92.86 2.58 2.05 6.14 3.45 10.33l.1.3h-.32c-2.4-.05-5.04-.11-7.81-.16l.25-.29c.18.99.38 2.04.58 3.1 1.28 7.05 2.44 13.42 3.29 18.12.39 2.27.71 4.13.94 5.5.09.61.17 1.1.23 1.5.05.34.06.53.05.53-.02 0-.07-.17-.15-.51-.09-.39-.19-.88-.32-1.48-.27-1.36-.64-3.21-1.1-5.47-.89-4.69-2.1-11.06-3.43-18.09-.2-1.06-.39-2.11-.57-3.1l-.05-.3h.3c2.77.08 5.41.15 7.81.21l-.22.29c-1.33-4.21-2.46-7.79-3.28-10.38-.37-1.22-.67-2.21-.89-2.96-.2-.69-.3-1.06-.27-1.07ZM263.75 135.39c-.06-.12 5.02-2.62 11.33-5.58 6.32-2.96 11.48-5.26 11.54-5.14.06.12-5.01 2.62-11.33 5.58-6.31 2.96-11.48 5.26-11.54 5.13ZM287.33 142.64c-.1-.09 1.83-2.58 4.33-5.57s4.6-5.35 4.71-5.26c.1.09-1.83 2.58-4.33 5.58-2.49 2.99-4.6 5.35-4.71 5.26ZM300.05 176.98c-.14-.01.73-9.75 1.94-21.75s2.29-21.72 2.43-21.7c.14.01-.73 9.75-1.94 21.75-1.2 12-2.29 21.71-2.43 21.7ZM282.7 90.82c.12-.06 1.15 1.77 2.31 4.09 1.15 2.32 1.99 4.25 1.87 4.31-.12.06-1.15-1.77-2.31-4.09-1.15-2.32-1.99-4.25-1.87-4.31Z"/>
  </g>
</svg>