<svg width="0" height="0" class="hidden">
  <symbol id="star-icon" xmlns="http://www.w3.org/2000/svg" viewBox="0 0 24 24">
    <path d="m12 .587 3.668 7.568L24 9.306l-6.064 5.828 1.48 8.279L12 19.446l-7.417 3.967 1.481-8.279L0 9.306l8.332-1.151z" fill="currentColor" />
  </symbol>
  <symbol id="hello" xmlns="http://www.w3.org/2000/svg" viewBox="0 0 864.16 577.01">
  <g fill="curentColor"><path d="M375.65 144.98c9.72-19.41 15.59-40.64 17-62.32 1.2-18.5.28-41.33-10.15-57.56C375.47 8.52 358.64-.4 340.95.01c-17.08.39-33.94 9.11-45.76 21.14-13.39 13.62-21.52 30.81-28.78 48.21-7.76 18.6-13.75 37.92-19.37 57.25-6.38 21.94-11.49 44.24-15.69 66.7-11.74 3.68-23.75 6.51-35.83 8.53-7.03 1.18-14.22 2.09-21.5 2.75-2.83-30.08-6.59-60.06-10.82-89.98-1.65-11.66-4.32-24.3-14.18-31.9-4.29-3.31-9.42-5.36-14.9-5.23-2.07.05-4.3.42-6.19 1.28-.82.37-1.67.98-2.54 1.63-3.2.12-6.3 1.67-8.03 4.84-5.96 10.97-4.33 25.78-4.63 37.91-.28 11.78-.28 23.61-.04 35.39.24 11.62.58 23.24.97 34.86-3.98-1.66-8.02-3.23-11.91-5.03-7.11-3.29-14.02-6.9-20.49-11.32-13.51-9.23-23.65-21.69-30.3-36.62-.41-.92-1.67-1.27-2.57-1.05-14.64 3.65-29.19 7.81-43.64 12.18-3.24-.79-6.41 3.65-3.77 6.95 28.35 35.57 69.86 55 113.72 62.37.13 3.22.25 6.43.39 9.65.99 23.99 2.12 47.97 3.56 71.94.71 11.77 1.52 23.54 2.35 35.31.92 13.05.75 27.04 3.65 39.81 1.63 7.19 8.7 12.09 15.8 12.35 6.68 3.94 15.39 4.12 22.86.64 14.53-6.75 20.15-23.85 21.47-38.62 1.61-18.04-.24-36.54-1.97-54.5-.9-9.28-1.92-18.54-2.91-27.81-.86-8.03-.48-17.55-2.83-25.32 11.95 1.18 23.51-.29 34.98-3.97 3.88-1.25 8.11-2.62 12.33-4.23-.54 3.84-1.07 7.67-1.58 11.51-5.33 40.39-9.08 80.97-12.91 121.52-1.99 21.13-3.88 42.26-5.3 63.43-1.35 20.19-3.18 40.78-1.69 61.01.9 12.29 3.19 22.52 8.74 33.55 1.13 2.25 2.89 4.1 4.98 5.51.32.35.62.71.97 1.05 6.5 6.35 16.45 10.19 25.53 9.91 8.55-.26 17.11-3.38 23.67-8.91 7.97-6.72 10.44-16.54 10.81-26.61.52-14.18-2.22-28.49-2.97-42.64-.79-15.1-.6-30.37-.57-45.49.07-29.9 1.4-59.92 3.92-89.72 2.77-32.68 8.42-65.08 11.26-97.68.17-.08.33-.17.5-.27 35.28-21.64 67.15-49.85 85.92-87.33ZM8.74 154.84c13.32-1.66 26.34-5.06 38.76-10.2 4.66 15.2 15.42 27.21 28.11 36.61 10.82 8.01 24.55 15.85 38.31 19.15l.12 3.19c-39.58-5.24-77.54-20.2-105.3-48.74Zm134.49 3.7c-.61-11.79-1.39-23.61-2.34-35.39-.98-12.02.11-27.31-6.26-37.91a9.63 9.63 0 0 0-1.42-1.8c4.88.13 9.49 2.24 13.15 5.76 9.78 9.41 9.71 25.65 10.94 38.19 2.54 25.99 5.63 51.93 9.33 77.79-6.89.45-13.85.66-20.83.6-.91-15.74-1.75-31.49-2.56-47.24Zm82.27 69.8c-4.9 2.35-9.91 4.49-15.05 6.27-11.38 3.96-23.46 6.82-35.55 6.86-.15 0-.26.04-.38.07-1.58-.45-3.38.1-3.68 2.08-.97 6.33.52 13.18 1.18 19.53.8 7.72 1.65 15.42 2.46 23.14 1.56 14.88 3.03 29.8 3.46 44.77.41 14.5.98 31.07-7.44 43.64-4.52 6.75-12.2 11.63-19.96 12.35 4.47-3.01 7.24-8.04 7.56-13.97.63-11.92-1.82-24.65-2.82-36.55-1.03-12.19-1.97-24.38-2.93-36.57-1.87-23.55-3.6-47.1-5.12-70.68-.11-1.7-.21-3.39-.31-5.09 9.88.39 19.74.24 29.47-.42 17.12-1.16 34.29-3.75 51.04-7.83-.67 4.13-1.3 8.26-1.92 12.39Zm139.11-172c-2.32 14.51-7.02 28.75-13.6 41.87-13.42 26.76-33.3 48.23-56.9 64.74.34-1.76.69-3.48 1.1-5.1 1.82-7.19 3.46-14.41 5.56-21.54 4.34-14.81 9.1-29.53 15.21-43.72 10.24-23.77 22.47-49.59 40.34-69.01 9.84 6.92 10.2 20.84 8.3 32.75ZM292.96 75.6c4.32-14.42 9.41-29.81 19.7-41.2 8.86-9.8 22.11-17.41 35.61-14.26-8.16 5.47-14.29 13.21-19.95 21.92-8.78 13.49-16.48 27.71-22.69 42.56-6.29 15.03-11.73 30.61-15.06 46.58-1.56 7.49-2.94 15.06-3.85 22.66-.53 4.4-1.39 9.83-1.4 14.93a222.18 222.18 0 0 1-15.99 9.07c5.97-34.44 13.56-68.59 23.64-102.25Zm-8.43 147.81c-3.08 1.6-3.06 4.93-1.53 7.23-7.57 23.49-11.43 48.22-14.52 72.7-3.34 26.39-5.59 53.13-5.95 79.73-.36 26.31.51 52.51 2.87 78.71 1.15 12.74 2.3 25.62 2.92 38.4.47 9.73.02 21.29-8.68 27.47-5.44 3.86-13.03 3.98-19.54 2.22 3.02-3.24 4.99-7.44 4.43-11.63-2.49-18.67-3.74-34.81-3.03-54.5.69-19.11 1.91-38.21 3.35-57.28 2.86-37.95 5.95-75.91 9.59-113.79 2.86-29.74 6.26-59.39 10.69-88.86 39.43-16.08 74.19-42.02 97.3-79.57 8.88-14.43 15.84-30.29 19.9-46.76.41-1.67.81-3.37 1.19-5.08.04 3.78-.07 7.56-.33 11.33-1.42 20.61-7.32 40.97-16.83 59.29-17.92 34.5-47.46 62.55-81.81 80.38Z"/><path d="M469.7 410.06c2.96-18.47-4.4-38.56-21.15-46.47-4.81-6.91-18.08-8.03-22.2.59-8.81 18.43-18.69 36.73-30.42 53.47-1.65 2.35-5.14 6.48-8.07 9.87-3.36 3.88-6.95 7.56-10.75 11.01-5.49 4.97-13.43 10.18-20.27 12.59-2.79-4.61-6.2-8.92-8.57-13.84-3.21-6.65-5.13-14-6.09-21.3-1.93-14.71-.69-29.73.45-44.52 22.05 5.14 46.21-5.89 59.69-23.62 12.38-16.29 15.03-40.43 3.22-57.4-5.98-14.8-24.08-18.81-39.93-15.36 4.5-5.48 10.25-10.04 16.23-13.58 10.11-5.99 21.56-9.48 30.79-16.97 6.15-4.99 12.31-12.42 12.92-20.67.29-3.86-.89-8.74-3.31-12.47-.04-1.65-.83-3.36-2.61-4.7-23.94-17.97-54.98-7.68-75.92 9.8-21.47 17.93-39.46 47.24-42.7 75.18-1.66 14.28 2.27 29.23 10.5 40.51-1.29 2.76-2.52 5.52-3.72 8.23-11.17 25.32-18.91 54.32-18 82.19.76 23.43 9.4 47.68 30.2 59.47 3.47 3.73 7.32 6.96 12.14 9.23 14.75 6.97 32.99 6.74 48.63 3.27 20.37-4.52 37.44-15.76 53.01-29.34 16.55-14.43 32.34-32.82 35.92-55.2Zm-82.56-116.82c1.35 2.66.62 6.26-.46 9.01-3.01 7.66-13.1 11.33-20.36 13.42-4.58 1.32-7.9 1.9-12.44 1.8-1.06-.03-1.6-.02-1.97-.03 7.51-11.58 19.59-19.06 33.29-22.52 1.08-.27 1.69-.92 1.94-1.67Zm-13.28-5.38c2.75-.03 6.07.41 8.85 1.65-15.03 2.75-27.21 13.69-33.53 27.35-1.02-.25-2.04-.49-3.07-.79-.35-.1-1.79-.73-1.64-.63-.89-.45-1.81-.99-2.61-1.57-.19-.2-.43-.46-.73-.79-.4-.44-.81-.87-1.21-1.3 7.95-12.15 19.4-23.76 33.95-23.92Zm-31.92 26.1c.52.45.82.87 0 0Zm-6.24-25.4c1.24-5.49 3.11-10.8 5.52-15.89 4.75-10.05 9.76-20.29 16.52-29.17 13.17-17.3 35.26-29.76 57.57-26.53.65.09 1.25.08 1.83.02 1.09 1.13 1.99 2.44 2.5 4.16 1.82 6.23-2.66 11.02-7.73 13.68-8.33 4.37-17.8 6.25-26.2 10.67-13.36 7.02-26.41 17.24-28.88 32.37a42.46 42.46 0 0 0-4.77 2.39c-6.52 3.84-12.17 8.74-17.19 14.3.1-2.23.33-3.73.84-6Zm-4.78 161.03c.18.02-2.31-2-2.75-2.45-.37-.38-2.4-2.9-2.45-2.86a50.564 50.564 0 0 1-3.1-5.2c-2.77-5.34-5.02-14.07-5.81-20.84-1.17-10.09-.82-20.46.04-30.55 1.22-14.31 3.71-29.04 8.03-43.05 6.86 4.17 14.99 6.45 24.15 5.97 23.24-1.22 54.28-18.49 58.13-43.73 1.94 13.25-.45 27.06-8.61 38.06-12.88 17.37-36.38 27.8-57.15 18.84-3.9-1.68-6.57 2.68-4.72 5.22-3.95 16.85-7.02 34.01-4.43 51.35 1.53 10.26 5.42 24.59 13.39 33.33-.34.02-.61.03-.69.04-.7.01-5.24-.39-4.22-.14-2.2-.41-4.51-1.04-6.58-1.92.52.16-2.06-1.33-3.25-2.06Zm74.95 25.32c-8.36 6.19-17.21 11.81-27.36 14.39-8.99 2.29-18.45 3.23-27.71 2.45-5-.42-9.91-1.72-14.53-3.74 27.77 5.3 56.2-11.9 74.93-31.38 21.71-22.59 33.65-50.95 38.36-81.42 11.35 13.04 13.13 31.91 4.96 48.52-5.4 11-13.73 20.16-22.62 28.46-8.37 7.82-16.8 15.9-26.02 22.72ZM860.33 152.69c-3-14.38-8.47-28.11-17.46-39.81-6.27-8.17-14.14-14.56-23.01-19.34-4.32-4.51-9.29-8.29-14.96-10.99-14.75-7.04-33.75-5.61-47.59 3.12-3.46 2.18-6.41 4.74-8.87 7.58-3.9-.14-7.86.17-11.83 1.02-25.67 5.49-41.57 28.24-50.72 51.11-10.36 25.91-14.86 55.63-10.29 83.17 1.24 7.49 3.05 14.95 5.47 22.18 1 11.21 6.45 21.68 12.57 31.08 8.88 13.63 19.9 25.71 33.05 35.31 11.92 8.7 24.8 14.02 39.66 14.26 16.56.26 33.07-5.73 46.32-15.49 25.32-18.64 39.28-48.96 46.16-78.92 6.32-27.51 7.29-56.58 1.51-84.28Zm-110.42-5.5c7.16 2.75 16.71-4.2 14.78-13.3-.84-3.96-1.75-8.04-2.12-12.03-.19-2.07 0-6.34.2-7.19.65-2.7.63-2.85 1.4-4.07 9.01 1.46 16.31 7.16 22.66 13.87 4.3 4.54 10.53-2.08 6.74-6.74-5.06-6.21-11.18-11.68-18-15.87 1.49-.47 3.21-.85 5.55-1.35.44-.1.9-.16 1.35-.23.06 0 .09 0 .16-.01 1.12-.09 2.23-.17 3.35-.19 1.21-.02 2.4.05 3.61.1.06 0 .19.01.32.03.34.05.7.12.83.15 17.98 5.22 25.53 24.08 29.32 40.87 4.84 21.4 2.66 43.48-3.54 64.34-5.78 19.48-14.8 39.48-29.68 53.73-6.48 6.2-13.87 10.36-22.05 12.49-2.07.54-4.17.89-6.26 1.08-11.25-17.04-19.24-36.11-21.01-56.72-1.97-22.91 2.31-47.79 12.37-68.94Zm-15.27 118.84c-3.4-2.73-6.51-5.83-9.31-9.16-.06-.07-.11-.12-.16-.19-.07-.11-.16-.24-.27-.41-.53-.76-1.06-1.52-1.56-2.3a69.14 69.14 0 0 1-3.68-6.42c-1.86-3.67-2.92-6.8-4.66-12.21-6.82-21.11-6.32-39.36-2.77-61.02 3.25-19.83 8.58-43.1 25.45-56.16.43-.33.87-.65 1.31-.97-.43 8.4 1.54 17.13 5.73 25.12.47.89 1 1.64 1.58 2.3-6.2 8.67-11.31 17.87-14.91 28.18-4.87 13.95-6.64 29.66-5.56 44.36 1.36 18.43 6.66 36.97 15.98 53.06-1.08-.54-2.48-1.23-2.99-1.53-.6-.34-4.61-3.11-4.18-2.67Zm121.1-43.49c-5.87 27.15-16.93 53.7-37.24 73.26-19.61 18.88-50.43 29.09-75.48 14.68-1.1-.63-2.19-1.3-3.27-1.98 18.21 3.18 37.57-1.39 52.95-12.55 23.21-16.84 35.37-41.88 43.46-68.72 8.04-26.68 11.34-55.54 6.64-83.14-2.56-15.01-8.26-31.88-18.08-44.84 14.18 11.46 24.31 27.29 29.93 45.17 7.94 25.26 6.64 52.49 1.1 78.12Z"/><path d="M785.39 359.2c-11.56-6.37-22.26-12.42-35.2-15.69-13.12-3.31-26.66-4.63-40.11-5.65-16.77-1.27-33.35.15-49.24 4.38 2.35-20.01 1.56-40.89.54-60.92-1.06-20.77-3.27-41.46-6.29-62.03-3.03-20.63-6.87-41.13-11.17-61.53-2.18-10.32-4.44-20.62-6.86-30.89-2.03-8.63-4.4-17.42-9.09-25.04-7.38-11.99-22.52-23.5-37.38-21.96-5.54-4.17-15.96.45-12.73 8.14 7.15 17.02 9.99 35.64 12.6 53.8 2.89 20.09 6.16 40.13 9.01 60.22 5.52 38.99 10.23 78.92 8.9 118.36-.26 7.67-.81 15.34-1.75 22.95-14.52 1.7-28.96 6.48-39.3 17.02-11.3 11.51-16.89 30.42-11.61 45.98 1.85 5.44 4.95 10.32 9.02 14.2 11.38 21.29 38.93 23.43 60.09 14.09 27.45-12.12 38.98-42.21 37.1-70.8 28.16 4.58 55.82 13.19 83.05 21.03 1.76.5 3.38.18 4.72-.62 13-.84 24.3-9.69 35.72-15.23 3.85-1.87 3.55-7.85 0-9.81ZM578.6 377.21c5.16-8.86 14.75-13.08 24.75-15.05-.61 2.71-1.27 5.41-2.02 8.09-2.18 7.77-5.01 15.4-8.62 22.63-2.08 4.17-5.02 11.48-10.2 10.27-11.11-2.58-7.86-19.17-3.91-25.95Zm43.77 47.76c-13.9 7.78-31.01 9.95-44.41 3.29 10.51 3.12 20.99-.05 29.42-7.04 15.49-12.83 23.32-36.23 27.59-55.2.38-1.7.73-3.41 1.07-5.12 5.58.33 11.15.87 16.69 1.59-1.18 24.41-8.04 50-30.36 62.48Zm29.84-80.46c-4.52-.55-9.04-.97-13.55-1.29 3.98-37.71-1.61-77.15-7.57-113.87-4.26-26.25-9.39-52.41-15.1-78.38-4.82-21.91-9.64-43.98-20.46-63.72 5.84 2.25 11.49 4.85 16.43 8.99 8.59 7.2 12.74 17.06 15.48 27.68 6.13 23.77 10.74 48.12 14.95 72.29 4.27 24.54 7.61 49.28 9.43 74.13 1.82 24.87.81 49.3.4 74.16Zm111.22 22.14c-5 2.3-10.24 3.8-15.45 5.47-24.67-11.37-51.68-20.16-79.12-25.1 13.27-2.21 26.81-2.69 40.21-1.32 12.02 1.24 24.08 2.72 35.81 5.67 9.11 2.29 19.41 5.45 27.37 11.15-2.94 1.37-5.87 2.78-8.82 4.13Z"/><path d="M642.1 469.93c-.44-1.01-1.4-1.8-2.72-1.81-32.99-18.48-70.71-13.56-105.53-2.98 1.38-9.09 2.1-18.4 3.18-27.34 1.68-13.99 3.17-28 4.39-42.04 2.43-28.06 3.64-56.14 3.02-84.3-.61-27.44-2.51-54.91-6.4-82.09-3.15-22.01-7.6-44.09-16.7-64.5-7.63-17.1-23.42-38.54-43.61-40.75-1.89-2.23-4.62-3.47-7.88-3.03-4.03.55-8.26 4.37-7.79 8.82 2.31 21.97 6.64 43.83 9.71 65.72 3.06 21.79 5.64 43.69 7.68 65.6 4.13 44.29 6.38 88.54 5.53 133.04-.42 22.02-1.6 44.02-3.62 65.95-.32 3.51-.61 7.06-.92 10.63-7.8 1.76-15.43 4.14-22.71 7.35-19.54 8.63-37 26.51-40.64 48.19-1.87 11.13-1.16 24.3 7.12 32.89a23.95 23.95 0 0 0 5 3.95c5.12 6.04 18.07 9.2 23.84 10.62 12.27 3.01 25.72 4.46 38.18 1.79 24.14-5.16 35.83-34.81 41.85-55.83 2.87-10.03 5.16-20.58 5.17-31.08 19.24.69 38.49 3.65 57.11 8.24 6.25 1.54 10.37-2.51 11.16-7.23 10.89-6.05 21.75-11.92 33.75-15.76 1.68-.54 2.27-1.92 2.08-3.21 0-.28-.08-.56-.24-.82Zm-199.93 68.31c-2.91 1.03-.53-1.06 0 0Zm.92-.34s-.06.01-.09.02c-.05-1.2-.6-3.19-.62-4.25-.07-4.01.81-8.01 2.32-11.72 2.95-7.22 8.4-13.35 14.78-17.73 5.39-3.7 11.31-6.5 17.52-8.66-1.43 6.43-3.44 12.67-6.43 18.54-3.61 7.09-7.95 13.11-13.21 17.29-2.54 2.02-6.46 4.19-8.59 4.96-1.71.62-3.54 1.16-5.33 1.48.18-1.48.28-3.09-.35.06Zm81.38-16.24c-4.41 13.53-10.68 28.05-20.7 38.44-9.45 9.81-22.65 10.5-35.6 10.05-6.98-.24-13.99-1.12-20.76-2.88 3.55-.14 7.09-.67 10.43-1.48 23.21-5.63 39.64-24.58 48.48-45.85 4.08-9.82 6.56-20.27 8.18-30.93 2.67-.16 5.33-.27 7.94-.35 2.93-.09 5.87-.13 8.81-.11-.77 11.25-3.3 22.47-6.77 33.11Zm3.76-88.81c-1.47 11.1-3.83 22.36-5.15 33.59-2.06.02-4.13.06-6.2.13.45-6.25.79-12.47 1.15-18.57 3.01-50.54 1.5-101.14-3.76-151.48-3.02-28.91-7.18-57.78-13.1-86.25-5.59-26.84-11.24-54.62-20.65-80.46 37.07 16.9 49.05 64.07 53.52 101.34 6.26 52.25 4.25 104.9-.71 157.17-1.41 14.88-3.14 29.72-5.09 44.54Zm77.32 50.8c-1.01-1.91-2.74-3.54-5.31-4.48-16.47-6.04-33.39-9.81-50.65-11.57 27.72-5.8 56.39-7.59 83.14 2.09-9.68 3.02-18.53 8.47-27.18 13.96Z"/></g>
  </symbol>
  <symbol id="show-more" xmlns="http://www.w3.org/2000/svg" viewBox="0 0 512.011 512.011">
    <path fill="curentColor" d="M505.755 123.592c-8.341-8.341-21.824-8.341-30.165 0L256.005 343.176 36.421 123.592c-8.341-8.341-21.824-8.341-30.165 0s-8.341 21.824 0 30.165l234.667 234.667a21.275 21.275 0 0 0 15.083 6.251 21.275 21.275 0 0 0 15.083-6.251l234.667-234.667c8.34-8.341 8.34-21.824-.001-30.165z"/>
  </symbol>
</svg>